<svg width="440" height="572" viewBox="0 0 440 572" fill="none" xmlns="http://www.w3.org/2000/svg">
<path d="M330.533 499.336C330.533 500.312 330.285 501.04 329.789 501.52C329.309 501.984 328.773 502.216 328.181 502.216H322.493C322.493 502.664 322.757 503.04 323.285 503.344C323.813 503.648 324.341 503.8 324.869 503.8C325.797 503.8 326.525 503.704 327.053 503.512L327.317 503.416C327.701 503.24 328.021 503.152 328.277 503.152C328.789 503.152 329.229 503.512 329.597 504.232C329.805 504.664 329.909 505.032 329.909 505.336C329.909 506.76 328.205 507.472 324.797 507.472C323.613 507.472 322.557 507.272 321.629 506.872C320.717 506.456 320.005 505.912 319.493 505.24C318.485 503.944 317.981 502.496 317.981 500.896C317.981 498.88 318.629 497.272 319.925 496.072C321.237 494.856 322.869 494.248 324.821 494.248C327.045 494.248 328.677 495.032 329.717 496.6C330.261 497.432 330.533 498.344 330.533 499.336ZM325.469 500.032C326.077 500.032 326.381 499.776 326.381 499.264C326.381 498.896 326.237 498.6 325.949 498.376C325.677 498.152 325.277 498.04 324.749 498.04C324.237 498.04 323.725 498.256 323.213 498.688C322.701 499.104 322.445 499.552 322.445 500.032H325.469ZM340.691 494.656C340.995 494.752 341.243 494.92 341.435 495.16C341.643 495.384 341.747 495.752 341.747 496.264C341.747 496.776 341.595 497.336 341.291 497.944C340.987 498.552 340.547 498.856 339.971 498.856C339.683 498.856 339.403 498.792 339.131 498.664C338.875 498.536 338.531 498.472 338.099 498.472C337.667 498.472 337.259 498.624 336.875 498.928C336.507 499.232 336.323 499.6 336.323 500.032V505.072C336.323 505.44 336.307 505.72 336.275 505.912C336.259 506.088 336.187 506.296 336.059 506.536C335.819 506.952 335.195 507.16 334.187 507.16C333.419 507.16 332.867 507.024 332.531 506.752C332.275 506.528 332.131 506.184 332.099 505.72C332.099 505.56 332.099 505.328 332.099 505.024V496.6C332.099 496.232 332.107 495.96 332.123 495.784C332.155 495.592 332.227 495.384 332.339 495.16C332.563 494.728 333.187 494.512 334.211 494.512C335.171 494.512 335.771 494.696 336.011 495.064C336.187 495.32 336.275 495.584 336.275 495.856C336.355 495.744 336.467 495.608 336.611 495.448C336.771 495.288 337.099 495.072 337.595 494.8C338.091 494.528 338.523 494.392 338.891 494.392C339.275 494.392 339.595 494.416 339.851 494.464C340.107 494.496 340.387 494.56 340.691 494.656ZM351.659 494.656C351.963 494.752 352.211 494.92 352.403 495.16C352.611 495.384 352.715 495.752 352.715 496.264C352.715 496.776 352.563 497.336 352.259 497.944C351.955 498.552 351.515 498.856 350.939 498.856C350.651 498.856 350.371 498.792 350.099 498.664C349.843 498.536 349.499 498.472 349.067 498.472C348.635 498.472 348.227 498.624 347.843 498.928C347.475 499.232 347.291 499.6 347.291 500.032V505.072C347.291 505.44 347.275 505.72 347.243 505.912C347.227 506.088 347.155 506.296 347.027 506.536C346.787 506.952 346.163 507.16 345.155 507.16C344.387 507.16 343.835 507.024 343.499 506.752C343.243 506.528 343.099 506.184 343.067 505.72C343.067 505.56 343.067 505.328 343.067 505.024V496.6C343.067 496.232 343.075 495.96 343.091 495.784C343.123 495.592 343.195 495.384 343.307 495.16C343.531 494.728 344.155 494.512 345.179 494.512C346.139 494.512 346.739 494.696 346.979 495.064C347.155 495.32 347.243 495.584 347.243 495.856C347.323 495.744 347.435 495.608 347.579 495.448C347.739 495.288 348.067 495.072 348.563 494.8C349.059 494.528 349.491 494.392 349.859 494.392C350.243 494.392 350.563 494.416 350.819 494.464C351.075 494.496 351.355 494.56 351.659 494.656ZM352.95 500.848C352.95 498.928 353.622 497.344 354.966 496.096C356.31 494.848 357.846 494.224 359.574 494.224C361.302 494.224 362.83 494.848 364.158 496.096C365.486 497.328 366.15 498.904 366.15 500.824C366.15 502.152 365.806 503.336 365.118 504.376C364.43 505.4 363.59 506.16 362.598 506.656C361.622 507.136 360.606 507.376 359.55 507.376C358.494 507.376 357.47 507.12 356.478 506.608C355.486 506.08 354.646 505.312 353.958 504.304C353.286 503.28 352.95 502.128 352.95 500.848ZM357.966 502.576C358.478 502.96 358.998 503.152 359.526 503.152C360.054 503.152 360.582 502.952 361.11 502.552C361.638 502.152 361.902 501.56 361.902 500.776C361.902 499.992 361.654 499.408 361.158 499.024C360.662 498.64 360.126 498.448 359.55 498.448C358.974 498.448 358.438 498.648 357.942 499.048C357.446 499.448 357.198 500.04 357.198 500.824C357.198 501.592 357.454 502.176 357.966 502.576ZM376.292 494.656C376.596 494.752 376.844 494.92 377.036 495.16C377.244 495.384 377.348 495.752 377.348 496.264C377.348 496.776 377.196 497.336 376.892 497.944C376.588 498.552 376.148 498.856 375.572 498.856C375.284 498.856 375.004 498.792 374.732 498.664C374.476 498.536 374.132 498.472 373.7 498.472C373.268 498.472 372.86 498.624 372.476 498.928C372.108 499.232 371.924 499.6 371.924 500.032V505.072C371.924 505.44 371.908 505.72 371.876 505.912C371.86 506.088 371.788 506.296 371.66 506.536C371.42 506.952 370.796 507.16 369.788 507.16C369.02 507.16 368.468 507.024 368.132 506.752C367.876 506.528 367.732 506.184 367.7 505.72C367.7 505.56 367.7 505.328 367.7 505.024V496.6C367.7 496.232 367.708 495.96 367.724 495.784C367.756 495.592 367.828 495.384 367.94 495.16C368.164 494.728 368.788 494.512 369.812 494.512C370.772 494.512 371.372 494.696 371.612 495.064C371.788 495.32 371.876 495.584 371.876 495.856C371.956 495.744 372.068 495.608 372.212 495.448C372.372 495.288 372.7 495.072 373.196 494.8C373.692 494.528 374.124 494.392 374.492 494.392C374.876 494.392 375.196 494.416 375.452 494.464C375.708 494.496 375.988 494.56 376.292 494.656Z" fill="#B5CCEE"/>
<path d="M90.4353 56.9859C93.3305 54.3358 97.7652 54.0604 100.933 56.3341L185.769 117.218C188.903 119.467 189.898 123.568 188.136 126.968L144.904 210.414C142.62 214.823 136.765 216.2 132.702 213.284L21.0002 133.119C16.9742 130.23 16.6577 124.518 20.3368 121.15L90.4353 56.9859Z" fill="#D9D9D9"/>
<rect width="57.6521" height="28.7731" transform="matrix(0.996945 0.209655 -0.166631 0.965031 173.22 127.699)" fill="#D9D9D9"/>
<path d="M207.54 152.228C203.414 147.405 206.175 140.33 212.455 139.631L238.826 136.7C244.979 136.016 249.915 141.991 247.76 147.514L238.713 170.696C236.558 176.219 228.905 177.204 224.863 172.479L207.54 152.228Z" fill="#D9D9D9"/>
<path d="M104.25 67.2592C104.25 67.2592 152.34 37.388 171.228 55.3179C190.117 73.2478 172.183 116.625 172.183 116.625" stroke="#D9D9D9" stroke-width="20"/>
<path d="M301.696 200.32C301.98 198.974 302.828 197.849 304.241 196.946C305.708 195.936 307.701 195.025 310.219 194.215C312.818 193.378 314.981 192.995 316.708 193.067C318.408 193.058 319.779 193.558 320.821 194.567C321.837 195.495 322.542 196.433 322.938 197.382C323.414 198.304 323.953 199.699 324.554 201.568L346.363 269.312C347.383 272.48 347.735 274.966 347.419 276.771C347.159 278.468 346.295 279.822 344.827 280.833C343.441 281.817 341.57 282.688 339.214 283.446C336.859 284.205 334.925 284.603 333.413 284.641C331.902 284.68 330.689 284.532 329.775 284.199C328.861 283.866 328.071 283.224 327.406 282.272C326.475 281.048 325.551 279.015 324.636 276.172L319.85 261.307L286.831 271.937C281.145 273.767 277.277 273.309 275.228 270.563C274.403 269.394 273.638 267.713 272.932 265.519C272.226 263.326 271.825 261.663 271.728 260.528L268.701 216.455C268.587 214.43 268.536 212.878 268.547 211.799C268.639 210.693 269.069 209.524 269.838 208.29C270.687 207.031 271.965 206.126 273.671 205.577C275.377 205.028 277.336 204.711 279.55 204.626C285.733 204.339 289.413 206.023 290.589 209.678C291.008 210.978 291.273 212.775 291.384 215.07C291.355 215.259 291.354 215.393 291.38 215.475L293.518 247.597L313.378 241.203L302.67 207.94C302.069 206.072 301.665 204.678 301.458 203.759C301.333 202.813 301.412 201.667 301.696 200.32Z" fill="#B5CCEE"/>
<path d="M303.524 320.841C306.751 318.02 310.791 316.011 315.645 314.812C320.602 313.55 325.942 313.61 331.666 314.991C337.39 316.373 342.096 318.694 345.787 321.954C349.56 325.235 352.248 328.825 353.853 332.723C355.541 336.642 356.591 341.021 357.003 345.861C357.69 353.927 357.023 362.149 355.001 370.527C351.378 385.542 345.27 396.665 336.678 403.896C333.471 406.634 329.451 408.56 324.617 409.676C319.866 410.812 314.67 410.699 309.03 409.338C303.389 407.977 298.63 405.687 294.754 402.47C290.981 399.189 288.241 395.631 286.533 391.795C284.908 387.979 283.848 383.642 283.353 378.782C282.669 371.067 283.418 362.689 285.6 353.648C287.602 345.352 290.267 338.49 293.597 333.061C297.009 327.652 300.318 323.579 303.524 320.841ZM314.126 387.13C322.67 389.192 328.903 382.093 332.827 365.835L333.007 365.088C337.031 348.415 334.812 339.057 326.351 337.015C317.89 334.973 311.638 342.331 307.594 359.087C303.57 375.76 305.747 385.108 314.126 387.13Z" fill="#B5CCEE"/>
<path d="M251.3 426.962C251.71 425.648 252.661 424.609 254.153 423.844C255.71 422.977 257.78 422.26 260.364 421.691C263.03 421.105 265.22 420.929 266.932 421.164C268.625 421.315 269.943 421.943 270.884 423.046C271.808 424.066 272.421 425.067 272.725 426.049C273.111 427.012 273.516 428.453 273.937 430.369L289.229 499.875C289.944 503.125 290.059 505.634 289.574 507.401C289.154 509.066 288.166 510.332 286.609 511.199C285.136 512.047 283.19 512.737 280.774 513.269C278.357 513.801 276.394 514.014 274.886 513.909C273.377 513.804 272.184 513.542 271.305 513.124C270.427 512.705 269.702 511.991 269.13 510.981C268.318 509.674 267.592 507.563 266.95 504.646L263.594 489.394L229.717 496.848C223.883 498.131 220.076 497.309 218.296 494.38C217.586 493.138 216.983 491.392 216.488 489.142C215.993 486.892 215.751 485.198 215.763 484.059L216.925 439.898C217.003 437.871 217.099 436.321 217.213 435.248C217.409 434.156 217.948 433.033 218.83 431.877C219.795 430.704 221.153 429.925 222.903 429.54C224.653 429.155 226.634 429.025 228.846 429.15C235.028 429.45 238.532 431.475 239.357 435.225C239.65 436.559 239.744 438.373 239.637 440.668C239.59 440.853 239.576 440.987 239.594 441.071L238.68 473.251L259.056 468.768L251.548 434.64C251.126 432.723 250.856 431.297 250.738 430.362C250.703 429.409 250.89 428.275 251.3 426.962Z" fill="#B5CCEE"/>
<path d="M240.759 261.085C238.005 269.666 230.871 275.049 224.823 273.109C218.775 271.168 216.105 262.639 218.859 254.058C221.612 245.476 232.219 229.272 238.267 231.213C244.314 233.153 243.512 252.504 240.759 261.085Z" fill="#B5CCEE"/>
<path d="M403.981 455.305C405.871 464.116 402.369 472.339 396.159 473.671C389.948 475.003 383.382 468.94 381.492 460.128C379.602 451.316 380.721 431.982 386.931 430.65C393.141 429.318 402.091 446.493 403.981 455.305Z" fill="#B5CCEE"/>
<path d="M177.459 442.964C172.806 450.682 164.625 454.28 159.185 451.001C153.746 447.721 153.109 438.806 157.762 431.088C162.416 423.371 176.465 410.04 181.904 413.32C187.343 416.599 182.113 435.246 177.459 442.964Z" fill="#B5CCEE"/>
<path d="M272.082 375.767C272.142 384.779 267.041 392.118 260.69 392.16C254.339 392.202 249.142 384.931 249.083 375.919C249.023 366.907 254.048 348.203 260.399 348.161C266.751 348.119 272.022 366.755 272.082 375.767Z" fill="#B5CCEE"/>
<path d="M177.595 558.471C172.354 565.802 163.917 568.751 158.75 565.057C153.583 561.363 153.644 552.426 158.885 545.094C164.126 537.763 179.173 525.57 184.339 529.263C189.506 532.957 182.837 551.139 177.595 558.471Z" fill="#B5CCEE"/>
<path d="M429.133 369.695C434.604 376.857 434.947 385.788 429.9 389.643C424.852 393.499 416.326 390.818 410.855 383.657C405.385 376.495 398.143 358.533 403.19 354.677C408.238 350.822 423.662 362.533 429.133 369.695Z" fill="#B5CCEE"/>
<path d="M334.381 159.216C341.179 165.133 343.309 173.813 339.14 178.603C334.97 183.394 326.079 182.482 319.281 176.565C312.483 170.649 301.78 154.508 305.95 149.717C310.119 144.926 327.583 153.299 334.381 159.216Z" fill="#B5CCEE"/>
</svg>
