<svg width="363" height="289" viewBox="0 0 363 289" fill="none" xmlns="http://www.w3.org/2000/svg">
<ellipse cx="16.5515" cy="24.4332" rx="16.5515" ry="24.4332" transform="matrix(-0.998072 0.0620661 0.0620661 0.998072 123.328 0)" fill="#C88A65"/>
<path d="M126.187 28.7209C207.413 16.795 253.883 83.6494 273.665 135.589C280.467 153.447 289.59 170.556 302.899 184.27C354.066 236.993 357.354 253.631 357.567 298.514C357.639 313.643 354.889 329.121 346.026 341.382C313.525 386.348 263.386 376.867 160.95 376.205C146.065 376.108 130.63 373.772 119.092 364.367C97.0216 346.377 91.9623 321.863 93.5287 297.435C96.3541 253.372 80.6352 211.627 51.4159 178.524C38.0621 163.396 30.7244 150.754 29.2954 146.882C26.4463 139.162 4.89203 46.5297 126.187 28.7209Z" fill="url(#paint0_linear_0_1)"/>
<g filter="url(#filter0_f_0_1)">
<path d="M48.1809 164.781C64.112 188.797 100.067 186.561 112.9 160.757C125.733 134.952 105.819 104.931 77.0551 106.72C48.2909 108.509 32.2497 140.765 48.1809 164.781Z" fill="#C88A65"/>
</g>
<rect width="30.7385" height="10.2462" rx="5.12309" transform="matrix(-0.980127 -0.198369 -0.198369 0.980127 186.285 85.3936)" fill="#713824"/>
<rect width="30.7386" height="10.2462" rx="5.12309" transform="matrix(-0.833323 0.552787 0.552787 0.833323 56.3884 85.5)" fill="#713824"/>
<path fill-rule="evenodd" clip-rule="evenodd" d="M236.296 8.89333C227.826 3.55455 214.656 9.22659 206.88 21.5618C204.456 25.406 202.843 29.444 202.026 33.3428C198.669 41.214 199.103 49.1714 203.917 53.9008C211.059 60.9167 225.133 58.1707 235.352 47.768C244.758 38.1923 247.62 25.4663 242.445 18.0312C241.506 14.117 239.449 10.8816 236.296 8.89333Z" fill="#C88A65"/>
<path d="M99.1757 119.577C84.745 116.362 76.2629 115.985 60.3853 118.041" stroke="#855239" stroke-width="10" stroke-linecap="round"/>
<path d="M78.5998 118.865C77.6693 139.833 75.9834 152.984 85.9574 173.685" stroke="#855239" stroke-width="10" stroke-linecap="round"/>
<g filter="url(#filter1_f_0_1)">
<path d="M140.042 46.5889C136.486 51.424 132.991 56.2138 129.281 60.9363" stroke="#DD9263" stroke-width="0.796724" stroke-linecap="round"/>
</g>
<g filter="url(#filter2_f_0_1)">
<path d="M124.498 43.001C121.975 48.0467 116.34 52.4601 111.346 54.9572" stroke="#DD9263" stroke-width="0.796724" stroke-linecap="round"/>
</g>
<g filter="url(#filter3_f_0_1)">
<path d="M110.15 41.8066C106.122 42.8729 102.216 44.3879 98.1942 45.3935" stroke="#DD9263" stroke-width="0.796724" stroke-linecap="round"/>
</g>
<g filter="url(#filter4_f_0_1)">
<path d="M162.758 182.889L160.367 175.715" stroke="#DD9263" stroke-width="0.796724" stroke-linecap="round"/>
</g>
<g filter="url(#filter5_f_0_1)">
<path d="M143.628 168.542C144.175 177.29 148.458 183.032 150.802 190.063" stroke="#DD9263" stroke-width="0.796724" stroke-linecap="round"/>
</g>
<g filter="url(#filter6_f_0_1)">
<path d="M130.477 168.542C130.477 175.705 128.677 188.566 136.455 192.454" stroke="#DD9263" stroke-width="0.796724" stroke-linecap="round"/>
</g>
<g filter="url(#filter7_f_0_1)">
<path d="M290.69 192.455C293.824 196.334 296.382 200.246 299.06 204.411" stroke="#DD9263" stroke-width="0.796724" stroke-linecap="round"/>
</g>
<g filter="url(#filter8_f_0_1)">
<path d="M284.711 200.823C286.783 201.913 288.707 203.171 290.689 204.41" stroke="#DD9263" stroke-width="0.796724" stroke-linecap="round"/>
</g>
<g filter="url(#filter9_f_0_1)">
<path d="M144.824 255.822C141.496 260.143 138.354 264.503 135.259 268.974" stroke="#DD9263" stroke-width="0.796724" stroke-linecap="round"/>
</g>
<g filter="url(#filter10_f_0_1)">
<path d="M132.867 257.017C130.907 260.231 128.822 263.359 126.889 266.582" stroke="#DD9263" stroke-width="0.796724" stroke-linecap="round"/>
</g>
<g filter="url(#filter11_f_0_1)">
<path d="M229.712 135.063C230.563 139.529 230.908 143.681 230.908 148.215" stroke="#AB6236" stroke-width="3" stroke-linecap="round"/>
</g>
<g filter="url(#filter12_f_0_1)">
<path d="M218.952 141.042C218.952 145.737 217.756 149.622 217.756 154.194" stroke="#AB6236" stroke-width="3" stroke-linecap="round"/>
</g>
<g filter="url(#filter13_f_0_1)">
<path d="M204.604 151.804C202.792 157.129 200.823 162.221 198.626 167.347" stroke="#AB6236" stroke-width="3" stroke-linecap="round"/>
</g>
<g filter="url(#filter14_f_0_1)">
<path d="M251.234 268.973C251.234 272.836 249.873 283.154 252.43 285.711" stroke="#AB6236" stroke-width="3" stroke-linecap="round"/>
</g>
<g filter="url(#filter15_f_0_1)">
<path d="M241.668 276.147C240.392 280.695 239.277 284.637 239.277 289.299" stroke="#AB6236" stroke-width="3" stroke-linecap="round"/>
</g>
<g filter="url(#filter16_f_0_1)">
<path d="M226.126 268.973C226.126 275.196 225.314 280.373 228.517 285.711" stroke="#AB6236" stroke-width="3" stroke-linecap="round"/>
</g>
<g filter="url(#filter17_f_0_1)">
<path d="M118.52 255.822C117.067 257.82 116.004 259.659 114.933 261.8" stroke="#AB6236" stroke-width="3" stroke-linecap="round"/>
</g>
<path d="M291.764 319.99C280.986 296.965 270.497 250.132 314.757 246.997" stroke="#855239" stroke-width="10" stroke-linecap="round"/>
<circle cx="47.5" cy="34.5" r="14.5" fill="#F2BAC9"/>
<circle cx="35.5" cy="49.5" r="14.5" fill="#F2BAC9"/>
<circle cx="63.5" cy="46.5" r="14.5" fill="#F2BAC9"/>
<circle cx="50.5" cy="61.5" r="14.5" fill="#F2BAC9"/>
<circle cx="49" cy="48" r="6" fill="#F2E2BA"/>
<circle cx="228.5" cy="48.5" r="14.5" fill="#F2BAC9"/>
<circle cx="216.5" cy="63.5" r="14.5" fill="#F2BAC9"/>
<circle cx="244.5" cy="60.5" r="14.5" fill="#F2BAC9"/>
<circle cx="231.5" cy="75.5" r="14.5" fill="#F2BAC9"/>
<circle cx="230" cy="62" r="6" fill="#BAD7F2"/>
<circle cx="107.5" cy="34.5" r="14.5" fill="#BAD7F2"/>
<circle cx="95.5" cy="49.5" r="14.5" fill="#BAD7F2"/>
<circle cx="123.5" cy="46.5" r="14.5" fill="#BAD7F2"/>
<circle cx="110.5" cy="61.5" r="14.5" fill="#BAD7F2"/>
<circle cx="109" cy="48" r="6" fill="#F2E2BA"/>
<circle cx="167.5" cy="34.5" r="14.5" fill="#B0F2B4"/>
<circle cx="155.5" cy="49.5" r="14.5" fill="#B0F2B4"/>
<circle cx="183.5" cy="46.5" r="14.5" fill="#B0F2B4"/>
<circle cx="170.5" cy="61.5" r="14.5" fill="#B0F2B4"/>
<circle cx="169" cy="48" r="6" fill="#F2BAC9"/>
<defs>
<filter id="filter0_f_0_1" x="39.789" y="104.543" width="79.1863" height="79.0835" filterUnits="userSpaceOnUse" color-interpolation-filters="sRGB">
<feFlood flood-opacity="0" result="BackgroundImageFix"/>
<feBlend mode="normal" in="SourceGraphic" in2="BackgroundImageFix" result="shape"/>
<feGaussianBlur stdDeviation="1.05042" result="effect1_foregroundBlur_0_1"/>
</filter>
<filter id="filter1_f_0_1" x="127.82" y="45.1281" width="13.682" height="17.2691" filterUnits="userSpaceOnUse" color-interpolation-filters="sRGB">
<feFlood flood-opacity="0" result="BackgroundImageFix"/>
<feBlend mode="normal" in="SourceGraphic" in2="BackgroundImageFix" result="shape"/>
<feGaussianBlur stdDeviation="0.531149" result="effect1_foregroundBlur_0_1"/>
</filter>
<filter id="filter2_f_0_1" x="109.885" y="41.5402" width="16.0733" height="14.8775" filterUnits="userSpaceOnUse" color-interpolation-filters="sRGB">
<feFlood flood-opacity="0" result="BackgroundImageFix"/>
<feBlend mode="normal" in="SourceGraphic" in2="BackgroundImageFix" result="shape"/>
<feGaussianBlur stdDeviation="0.531149" result="effect1_foregroundBlur_0_1"/>
</filter>
<filter id="filter3_f_0_1" x="96.7334" y="40.3459" width="14.8778" height="6.50839" filterUnits="userSpaceOnUse" color-interpolation-filters="sRGB">
<feFlood flood-opacity="0" result="BackgroundImageFix"/>
<feBlend mode="normal" in="SourceGraphic" in2="BackgroundImageFix" result="shape"/>
<feGaussianBlur stdDeviation="0.531149" result="effect1_foregroundBlur_0_1"/>
</filter>
<filter id="filter4_f_0_1" x="158.906" y="174.254" width="5.31283" height="10.0953" filterUnits="userSpaceOnUse" color-interpolation-filters="sRGB">
<feFlood flood-opacity="0" result="BackgroundImageFix"/>
<feBlend mode="normal" in="SourceGraphic" in2="BackgroundImageFix" result="shape"/>
<feGaussianBlur stdDeviation="0.531149" result="effect1_foregroundBlur_0_1"/>
</filter>
<filter id="filter5_f_0_1" x="142.167" y="167.081" width="10.0951" height="24.443" filterUnits="userSpaceOnUse" color-interpolation-filters="sRGB">
<feFlood flood-opacity="0" result="BackgroundImageFix"/>
<feBlend mode="normal" in="SourceGraphic" in2="BackgroundImageFix" result="shape"/>
<feGaussianBlur stdDeviation="0.531149" result="effect1_foregroundBlur_0_1"/>
</filter>
<filter id="filter6_f_0_1" x="128.836" y="167.081" width="9.07919" height="26.8336" filterUnits="userSpaceOnUse" color-interpolation-filters="sRGB">
<feFlood flood-opacity="0" result="BackgroundImageFix"/>
<feBlend mode="normal" in="SourceGraphic" in2="BackgroundImageFix" result="shape"/>
<feGaussianBlur stdDeviation="0.531149" result="effect1_foregroundBlur_0_1"/>
</filter>
<filter id="filter7_f_0_1" x="289.23" y="190.994" width="11.2909" height="14.8775" filterUnits="userSpaceOnUse" color-interpolation-filters="sRGB">
<feFlood flood-opacity="0" result="BackgroundImageFix"/>
<feBlend mode="normal" in="SourceGraphic" in2="BackgroundImageFix" result="shape"/>
<feGaussianBlur stdDeviation="0.531149" result="effect1_foregroundBlur_0_1"/>
</filter>
<filter id="filter8_f_0_1" x="283.251" y="199.363" width="8.8995" height="6.50839" filterUnits="userSpaceOnUse" color-interpolation-filters="sRGB">
<feFlood flood-opacity="0" result="BackgroundImageFix"/>
<feBlend mode="normal" in="SourceGraphic" in2="BackgroundImageFix" result="shape"/>
<feGaussianBlur stdDeviation="0.531149" result="effect1_foregroundBlur_0_1"/>
</filter>
<filter id="filter9_f_0_1" x="133.798" y="254.362" width="12.4864" height="16.0728" filterUnits="userSpaceOnUse" color-interpolation-filters="sRGB">
<feFlood flood-opacity="0" result="BackgroundImageFix"/>
<feBlend mode="normal" in="SourceGraphic" in2="BackgroundImageFix" result="shape"/>
<feGaussianBlur stdDeviation="0.531149" result="effect1_foregroundBlur_0_1"/>
</filter>
<filter id="filter10_f_0_1" x="125.428" y="255.556" width="8.8995" height="12.4859" filterUnits="userSpaceOnUse" color-interpolation-filters="sRGB">
<feFlood flood-opacity="0" result="BackgroundImageFix"/>
<feBlend mode="normal" in="SourceGraphic" in2="BackgroundImageFix" result="shape"/>
<feGaussianBlur stdDeviation="0.531149" result="effect1_foregroundBlur_0_1"/>
</filter>
<filter id="filter11_f_0_1" x="227.15" y="132.501" width="6.3204" height="18.276" filterUnits="userSpaceOnUse" color-interpolation-filters="sRGB">
<feFlood flood-opacity="0" result="BackgroundImageFix"/>
<feBlend mode="normal" in="SourceGraphic" in2="BackgroundImageFix" result="shape"/>
<feGaussianBlur stdDeviation="0.531149" result="effect1_foregroundBlur_0_1"/>
</filter>
<filter id="filter12_f_0_1" x="215.194" y="138.48" width="6.32015" height="18.276" filterUnits="userSpaceOnUse" color-interpolation-filters="sRGB">
<feFlood flood-opacity="0" result="BackgroundImageFix"/>
<feBlend mode="normal" in="SourceGraphic" in2="BackgroundImageFix" result="shape"/>
<feGaussianBlur stdDeviation="0.531149" result="effect1_foregroundBlur_0_1"/>
</filter>
<filter id="filter13_f_0_1" x="196.063" y="149.241" width="11.1036" height="20.6676" filterUnits="userSpaceOnUse" color-interpolation-filters="sRGB">
<feFlood flood-opacity="0" result="BackgroundImageFix"/>
<feBlend mode="normal" in="SourceGraphic" in2="BackgroundImageFix" result="shape"/>
<feGaussianBlur stdDeviation="0.531149" result="effect1_foregroundBlur_0_1"/>
</filter>
<filter id="filter14_f_0_1" x="248.31" y="266.41" width="6.68221" height="21.8629" filterUnits="userSpaceOnUse" color-interpolation-filters="sRGB">
<feFlood flood-opacity="0" result="BackgroundImageFix"/>
<feBlend mode="normal" in="SourceGraphic" in2="BackgroundImageFix" result="shape"/>
<feGaussianBlur stdDeviation="0.531149" result="effect1_foregroundBlur_0_1"/>
</filter>
<filter id="filter15_f_0_1" x="236.714" y="273.585" width="7.51644" height="18.276" filterUnits="userSpaceOnUse" color-interpolation-filters="sRGB">
<feFlood flood-opacity="0" result="BackgroundImageFix"/>
<feBlend mode="normal" in="SourceGraphic" in2="BackgroundImageFix" result="shape"/>
<feGaussianBlur stdDeviation="0.531149" result="effect1_foregroundBlur_0_1"/>
</filter>
<filter id="filter16_f_0_1" x="223.466" y="266.41" width="7.61337" height="21.8639" filterUnits="userSpaceOnUse" color-interpolation-filters="sRGB">
<feFlood flood-opacity="0" result="BackgroundImageFix"/>
<feBlend mode="normal" in="SourceGraphic" in2="BackgroundImageFix" result="shape"/>
<feGaussianBlur stdDeviation="0.531149" result="effect1_foregroundBlur_0_1"/>
</filter>
<filter id="filter17_f_0_1" x="112.371" y="253.26" width="8.71176" height="11.1031" filterUnits="userSpaceOnUse" color-interpolation-filters="sRGB">
<feFlood flood-opacity="0" result="BackgroundImageFix"/>
<feBlend mode="normal" in="SourceGraphic" in2="BackgroundImageFix" result="shape"/>
<feGaussianBlur stdDeviation="0.531149" result="effect1_foregroundBlur_0_1"/>
</filter>
<linearGradient id="paint0_linear_0_1" x1="102.268" y1="55.007" x2="293.378" y2="347.153" gradientUnits="userSpaceOnUse">
<stop stop-color="#D1A278"/>
<stop offset="1" stop-color="#C98B66"/>
</linearGradient>
</defs>
</svg>

