<svg width="762" height="262" viewBox="0 0 762 262" fill="none" xmlns="http://www.w3.org/2000/svg">
<rect x="49" y="97" width="504" height="135" rx="67.5" fill="#EBE6FF"/>
<rect x="329" y="167" width="353" height="95" rx="47.5" fill="#EBE6FF"/>
<rect x="409" y="77" width="353" height="95" rx="47.5" fill="#EBE6FF"/>
<path d="M328.5 49L346 76.5L328.5 104L311 76.5L328.5 49Z" fill="#FFFFFE"/>
<path d="M328.5 49L346 76.5L328.5 104L311 76.5L328.5 49Z" fill="#FFFFFE"/>
<path d="M328.5 49L346 76.5L328.5 104L311 76.5L328.5 49Z" fill="#FFFFFE"/>
<rect x="43.9468" y="60.496" width="162.053" height="43.3973" rx="21.6987" fill="#DDD5FC"/>
<rect y="76.976" width="162.053" height="43.3973" rx="21.6987" fill="#DDD5FC"/>
<circle cx="73.8854" cy="59.672" r="43.672" fill="#DDD5FC"/>
<ellipse cx="138.5" cy="8" rx="7.5" ry="8" fill="#FFFFFE"/>
<ellipse cx="8.5" cy="48" rx="7.5" ry="8" fill="#FFFFFE"/>
</svg>
