<svg width="425" height="190" viewBox="0 0 425 190" fill="none" xmlns="http://www.w3.org/2000/svg">
<rect x="129" y="81" width="295" height="79" rx="39.5" fill="#E9E7F1"/>
<rect x="49" y="111" width="295" height="79" rx="39.5" fill="#E9E7F1"/>
<circle cx="183.5" cy="79.5" r="79.5" fill="#E9E7F1"/>
<path d="M407.5 113L425 140.5L407.5 168L390 140.5L407.5 113Z" fill="#FFFFFE"/>
<path d="M407.5 113L425 140.5L407.5 168L390 140.5L407.5 113Z" fill="#FFFFFE"/>
<path d="M407.5 113L425 140.5L407.5 168L390 140.5L407.5 113Z" fill="#FFFFFE"/>
<path d="M17.5 3L35 30.5L17.5 58L0 30.5L17.5 3Z" fill="#FFFFFE"/>
<path d="M17.5 3L35 30.5L17.5 58L0 30.5L17.5 3Z" fill="#FFFFFE"/>
<path d="M17.5 3L35 30.5L17.5 58L0 30.5L17.5 3Z" fill="#FFFFFE"/>
</svg>
