<svg width="1440" height="584" viewBox="0 0 1440 584" fill="none" xmlns="http://www.w3.org/2000/svg">
<path d="M-3.04674 42.7783C127.291 12.2832 216.261 50.45 356.415 42.7783C496.569 35.1067 637.083 -3.69133 732.945 0.285161C828.806 4.26165 886.556 47.2776 976.034 34.7796C1065.51 22.2816 1244.47 11.7833 1317.91 11.7833C1391.35 11.7833 1426.63 13.6952 1486.52 42.7783C1546.41 71.8615 1563.38 385.947 1486.52 583.691C1409.66 781.436 73.8145 781.436 -3.04674 583.691C-79.9079 385.947 -133.384 73.2735 -3.04674 42.7783Z" fill="#BF8967"/>
<path d="M16.2897 275.332C150.042 270.041 230.187 324.348 369.262 343.326C508.337 362.304 653.653 350.785 747.032 372.823C840.411 394.86 888.982 448.023 979.208 452.676C1069.43 457.329 1247.14 480.87 1319.26 494.762C1391.38 508.655 1425.66 517.204 1478.97 557.092C1532.28 596.979 1489.53 908.603 1376.65 1088.24C1263.77 1267.88 -47.9576 1015.19 -86.0268 806.48C-124.096 597.767 -117.463 280.623 16.2897 275.332Z" fill="#92694F"/>
</svg>
