<svg width="530" height="265" viewBox="0 0 530 265" fill="none" xmlns="http://www.w3.org/2000/svg">
<path d="M241.891 2.85132L290.607 52.2395L282.393 249.441H200.792L193.174 52.2395L241.891 2.85132Z" fill="#FFFFFE"/>
<path d="M374.332 8.33755L417.43 62.698L387.967 257.859L306.844 249.046L320.566 52.1757L374.332 8.33755Z" fill="#FFFFFE"/>
<path d="M479.876 9.99875L528.699 59.2815L520.911 256.5L439.311 256.676L431.266 59.492L479.876 9.99875Z" fill="#FFFFFE"/>
<path d="M19.618 15.0135L71.3796 61.2008L75.7337 258.525L-5.7017 263.719L-25.8565 67.4023L19.618 15.0135Z" fill="#FFFFFE"/>
<path d="M126.831 3.10066L178.592 49.2879L182.947 246.612L101.511 251.806L81.3564 55.4894L126.831 3.10066Z" fill="#FFFFFE"/>
<path d="M53.6733 146.397H456.317V173.796L254.995 160.692L53.6733 173.796V146.397Z" fill="#FFFFFE"/>
</svg>
