<svg width="233" height="738" viewBox="0 0 233 738" fill="none" xmlns="http://www.w3.org/2000/svg">
<path d="M37.0005 272.271L233 76.2705C225 103.271 215 140.271 171 188.271C127 236.271 70.0005 259.271 37.0005 272.271Z" fill="#AFCFB1"/>
<path d="M233 76.2705L37 272.271C45 245.271 55 208.271 99 160.271C143 112.271 200 89.2705 233 76.2705Z" fill="#AFCFB1"/>
<path d="M37.5 271.771C63.6667 232.604 137.4 140.271 231 78.2705" stroke="#2A501E" stroke-width="2" stroke-linecap="round"/>
<path d="M32 268.98L32 287.767C32 318.304 16.7352 346.398 -18.0685 346.398C-61.5427 346.398 -36.1713 346.398 -46.5514 346.398C-83.1869 346.398 -107 358.002 -107 406.861C-107 467.935 -107 602.908 -107 737.27" stroke="#638A4E" stroke-width="2"/>
<path d="M90.9995 322.271L-105 126.271C-97.0005 153.271 -87.0005 190.271 -43.0005 238.271C0.999512 286.271 57.9995 309.271 90.9995 322.271Z" fill="#AFCFB1"/>
<path d="M-105 126.271L91 322.271C83 295.271 73 258.271 29 210.271C-15 162.271 -72 139.271 -105 126.271Z" fill="#AFCFB1"/>
<path d="M90.5 321.771C64.3333 282.604 -9.4 190.271 -103 128.271" stroke="#2A501E" stroke-width="2" stroke-linecap="round"/>
<path d="M100.695 28.0686C102.766 22.1702 111.595 24.5358 110.44 30.6798C109.978 33.1352 111.378 35.56 113.736 36.3878C119.634 38.4594 117.268 47.2882 111.124 46.133C108.669 45.6713 106.244 47.0712 105.416 49.4285C103.345 55.327 94.5159 52.9613 95.6711 46.8173C96.1328 44.3619 94.7329 41.9372 92.3756 41.1093C86.4771 39.0377 88.8428 30.2089 94.9868 31.3641C97.4422 31.8258 99.8669 30.4259 100.695 28.0686Z" fill="#758CD0"/>
<path d="M98.4581 36.785L103.654 33.785C104.133 33.5089 104.744 33.6728 105.02 34.151L108.02 39.3471C108.296 39.8254 108.133 40.437 107.654 40.7132L102.458 43.7132C101.98 43.9892 101.368 43.8254 101.092 43.3471L98.0921 38.151C97.8161 37.6728 97.98 37.0611 98.4581 36.785Z" fill="#5465AE" stroke="#6877BA" stroke-width="2"/>
<path d="M83.4097 46.2131C85.4812 40.3147 94.31 42.6804 93.1548 48.8243C92.6931 51.2797 94.0931 53.7045 96.4504 54.5324C102.349 56.6039 99.9831 65.4327 93.8391 64.2775C91.3837 63.8158 88.959 65.2158 88.1311 67.5731C86.0596 73.4715 77.2307 71.1058 78.386 64.9619C78.8476 62.5064 77.4477 60.0817 75.0904 59.2538C69.192 57.1823 71.5577 48.3535 77.7016 49.5087C80.157 49.9703 82.5818 48.5704 83.4097 46.2131Z" fill="#758CD0"/>
<path d="M81.173 54.9295L86.3691 51.9295C86.8474 51.6534 87.459 51.8173 87.7351 52.2955L90.7351 57.4917C91.0113 57.97 90.8474 58.5816 90.3691 58.8577L85.173 61.8577C84.6947 62.1337 84.0831 61.9699 83.8069 61.4917L80.8069 56.2955C80.5309 55.8173 80.6948 55.2057 81.173 54.9295Z" fill="#5465AE" stroke="#6877BA" stroke-width="2"/>
<path d="M101.554 63.4983C103.626 57.5998 112.455 59.9655 111.299 66.1095C110.838 68.5649 112.238 70.9896 114.595 71.8175C120.493 73.8891 118.128 82.7179 111.984 81.5627C109.528 81.101 107.104 82.5009 106.276 84.8582C104.204 90.7566 95.3753 88.391 96.5305 82.247C96.9922 79.7916 95.5922 77.3668 93.2349 76.539C87.3365 74.4674 89.7022 65.6386 95.8461 66.7938C98.3016 67.2555 100.726 65.8556 101.554 63.4983Z" fill="#758CD0"/>
<path d="M99.3175 72.2147L104.514 69.2147C104.992 68.9385 105.603 69.1025 105.88 69.5807L108.88 74.7768C109.156 75.2551 108.992 75.8667 108.514 76.1429L103.317 79.1429C102.839 79.4189 102.228 79.2551 101.951 78.7768L98.9515 73.5807C98.6755 73.1025 98.8394 72.4908 99.3175 72.2147Z" fill="#5465AE" stroke="#6877BA" stroke-width="2"/>
<path d="M84.269 81.6428C86.3406 75.7444 95.1694 78.1101 94.0142 84.254C93.5525 86.7094 94.9524 89.1342 97.3097 89.9621C103.208 92.0336 100.842 100.862 94.6985 99.7072C92.2431 99.2455 89.8183 100.645 88.9905 103.003C86.9189 108.901 78.0901 106.536 79.2453 100.392C79.707 97.9361 78.3071 95.5114 75.9498 94.6835C70.0513 92.612 72.417 83.7831 78.561 84.9384C81.0164 85.4 83.4412 84.0001 84.269 81.6428Z" fill="#758CD0"/>
<path d="M82.0323 90.3592L87.2285 87.3592C87.7067 87.0831 88.3183 87.247 88.5945 87.7252L91.5945 92.9214C91.8707 93.3997 91.7068 94.0113 91.2285 94.2874L86.0323 97.2874C85.5541 97.5634 84.9424 97.3996 84.6663 96.9214L81.6663 91.7252C81.3903 91.247 81.5542 90.6353 82.0323 90.3592Z" fill="#5465AE" stroke="#6877BA" stroke-width="2"/>
<path d="M66.1245 64.3586C68.196 58.4602 77.0249 60.8259 75.8696 66.9698C75.408 69.4253 76.8079 71.85 79.1652 72.6779C85.0636 74.7494 82.6979 83.5782 76.554 82.423C74.0986 81.9613 71.6738 83.3613 70.8459 85.7186C68.7744 91.617 59.9456 89.2513 61.1008 83.1074C61.5625 80.6519 60.1625 78.2272 57.8052 77.3993C51.9068 75.3278 54.2725 66.499 60.4165 67.6542C62.8719 68.1159 65.2966 66.7159 66.1245 64.3586Z" fill="#758CD0"/>
<path d="M63.8878 73.075L69.084 70.075C69.5622 69.7989 70.1738 69.9628 70.45 70.441L73.45 75.6372C73.7261 76.1155 73.5623 76.7271 73.084 77.0032L67.8878 80.0032C67.4095 80.2792 66.7979 80.1154 66.5218 79.6372L63.5218 74.441C63.2458 73.9628 63.4097 73.3512 63.8878 73.075Z" fill="#5465AE" stroke="#6877BA" stroke-width="2"/>
<path d="M48.8394 82.5031C50.9109 76.6047 59.7397 78.9704 58.5845 85.1144C58.1228 87.5698 59.5227 89.9945 61.88 90.8224C67.7785 92.894 65.4128 101.723 59.2688 100.568C56.8134 100.106 54.3887 101.506 53.5608 103.863C51.4892 109.762 42.6604 107.396 43.8156 101.252C44.2773 98.7965 42.8774 96.3717 40.5201 95.5438C34.6217 93.4723 36.9873 84.6435 43.1313 85.7987C45.5867 86.2604 48.0115 84.8605 48.8394 82.5031Z" fill="#758CD0"/>
<path d="M46.6027 91.2195L51.7988 88.2195C52.2771 87.9434 52.8887 88.1074 53.1648 88.5856L56.1648 93.7817C56.441 94.26 56.2771 94.8716 55.7988 95.1477L50.6027 98.1477C50.1244 98.4238 49.5127 98.26 49.2366 97.7817L46.2366 92.5856C45.9606 92.1073 46.1245 91.4957 46.6027 91.2195Z" fill="#5465AE" stroke="#6877BA" stroke-width="2"/>
<path d="M66.9839 99.7883C69.0554 93.8899 77.8842 96.2556 76.729 102.4C76.2673 104.855 77.6673 107.28 80.0246 108.108C85.923 110.179 83.5573 119.008 77.4134 117.853C74.9579 117.391 72.5332 118.791 71.7053 121.148C69.6338 127.047 60.805 124.681 61.9602 118.537C62.4219 116.082 61.0219 113.657 58.6646 112.829C52.7662 110.757 55.1319 101.929 61.2758 103.084C63.7313 103.546 66.156 102.146 66.9839 99.7883Z" fill="#758CD0"/>
<path d="M64.7472 108.505L69.9433 105.505C70.4216 105.229 71.0332 105.393 71.3094 105.871L74.3094 111.067C74.5855 111.545 74.4216 112.157 73.9433 112.433L68.7472 115.433C68.2689 115.709 67.6573 115.545 67.3812 115.067L64.3812 109.871C64.1052 109.392 64.269 108.781 64.7472 108.505Z" fill="#5465AE" stroke="#6877BA" stroke-width="2"/>
<path d="M85.1284 117.072C87.2 111.174 96.0288 113.54 94.8736 119.684C94.4119 122.139 95.8118 124.564 98.1691 125.392C104.068 127.463 101.702 136.292 95.5579 135.137C93.1025 134.675 90.6777 136.075 89.8498 138.432C87.7783 144.331 78.9495 141.965 80.1047 135.821C80.5664 133.366 79.1664 130.941 76.8091 130.113C70.9107 128.042 73.2764 119.213 79.4204 120.368C81.8758 120.83 84.3005 119.43 85.1284 117.072Z" fill="#758CD0"/>
<path d="M82.8917 125.789L88.0879 122.789C88.5661 122.513 89.1777 122.677 89.4539 123.155L92.4539 128.351C92.73 128.829 92.5662 129.441 92.0879 129.717L86.8917 132.717C86.4134 132.993 85.8018 132.829 85.5257 132.351L82.5257 127.155C82.2497 126.677 82.4136 126.065 82.8917 125.789Z" fill="#5465AE" stroke="#6877BA" stroke-width="2"/>
<path d="M102.414 98.928C104.485 93.0295 113.314 95.3952 112.159 101.539C111.697 103.995 113.097 106.419 115.454 107.247C121.353 109.319 118.987 118.148 112.843 116.992C110.388 116.531 107.963 117.931 107.135 120.288C105.063 126.186 96.2346 123.821 97.3899 117.677C97.8515 115.221 96.4516 112.797 94.0943 111.969C88.1959 109.897 90.5616 101.068 96.7055 102.224C99.1609 102.685 101.586 101.285 102.414 98.928Z" fill="#758CD0"/>
<path d="M100.177 107.644L105.373 104.644C105.851 104.368 106.463 104.532 106.739 105.01L109.739 110.207C110.015 110.685 109.851 111.296 109.373 111.573L104.177 114.573C103.699 114.849 103.087 114.685 102.811 114.207L99.8108 109.01C99.5348 108.532 99.6987 107.92 100.177 107.644Z" fill="#5465AE" stroke="#6877BA" stroke-width="2"/>
<path d="M103.273 134.358C105.344 128.459 114.173 130.825 113.018 136.969C112.556 139.424 113.956 141.849 116.314 142.677C122.212 144.748 119.846 153.577 113.702 152.422C111.247 151.96 108.822 153.36 107.994 155.718C105.923 161.616 97.094 159.25 98.2492 153.106C98.7109 150.651 97.311 148.226 94.9537 147.398C89.0553 145.327 91.4209 136.498 97.5649 137.653C100.02 138.115 102.445 136.715 103.273 134.358Z" fill="#758CD0"/>
<path d="M101.036 143.074L106.232 140.074C106.711 139.798 107.322 139.962 107.598 140.44L110.598 145.636C110.875 146.115 110.711 146.726 110.232 147.002L105.036 150.002C104.558 150.278 103.946 150.114 103.67 149.636L100.67 144.44C100.394 143.962 100.558 143.35 101.036 143.074Z" fill="#5465AE" stroke="#6877BA" stroke-width="2"/>
<path d="M85.9878 152.502C88.0593 146.604 96.8881 148.969 95.7329 155.113C95.2712 157.569 96.6712 159.994 99.0285 160.821C104.927 162.893 102.561 171.722 96.4173 170.567C93.9618 170.105 91.5371 171.505 90.7092 173.862C88.6377 179.761 79.8089 177.395 80.9641 171.251C81.4258 168.795 80.0258 166.371 77.6685 165.543C71.7701 163.471 74.1358 154.643 80.2797 155.798C82.7352 156.259 85.1599 154.859 85.9878 152.502Z" fill="#758CD0"/>
<path d="M83.7511 161.219L88.9472 158.219C89.4255 157.942 90.0371 158.106 90.3133 158.585L93.3133 163.781C93.5894 164.259 93.4255 164.871 92.9472 165.147L87.7511 168.147C87.2728 168.423 86.6612 168.259 86.3851 167.781L83.3851 162.585C83.1091 162.106 83.273 161.495 83.7511 161.219Z" fill="#5465AE" stroke="#6877BA" stroke-width="2"/>
<path d="M67.8433 135.217C69.9148 129.319 78.7436 131.684 77.5884 137.828C77.1267 140.284 78.5267 142.708 80.884 143.536C86.7824 145.608 84.4167 154.437 78.2727 153.281C75.8173 152.82 73.3926 154.22 72.5647 156.577C70.4931 162.475 61.6643 160.11 62.8195 153.966C63.2812 151.51 61.8813 149.086 59.524 148.258C53.6256 146.186 55.9912 137.357 62.1352 138.513C64.5906 138.974 67.0154 137.574 67.8433 135.217Z" fill="#758CD0"/>
<path d="M65.6066 143.933L70.8027 140.933C71.281 140.657 71.8926 140.821 72.1687 141.299L75.1687 146.496C75.4449 146.974 75.281 147.585 74.8027 147.862L69.6066 150.862C69.1283 151.138 68.5167 150.974 68.2405 150.496L65.2405 145.299C64.9645 144.821 65.1284 144.21 65.6066 143.933Z" fill="#5465AE" stroke="#6877BA" stroke-width="2"/>
<path d="M49.6987 117.933C51.7703 112.034 60.5991 114.4 59.4439 120.544C58.9822 122.999 60.3821 125.424 62.7394 126.252C68.6378 128.324 66.2722 137.152 60.1282 135.997C57.6728 135.536 55.248 136.935 54.4202 139.293C52.3486 145.191 43.5198 142.826 44.675 136.682C45.1367 134.226 43.7368 131.801 41.3795 130.974C35.481 128.902 37.8467 120.073 43.9907 121.228C46.4461 121.69 48.8708 120.29 49.6987 117.933Z" fill="#758CD0"/>
<path d="M47.462 126.649L52.6582 123.649C53.1364 123.373 53.748 123.537 54.0242 124.015L57.0242 129.211C57.3004 129.69 57.1365 130.301 56.6582 130.577L51.462 133.577C50.9838 133.853 50.3721 133.69 50.096 133.211L47.096 128.015C46.82 127.537 46.9839 126.925 47.462 126.649Z" fill="#5465AE" stroke="#6877BA" stroke-width="2"/>
<path d="M31.5542 100.648C33.6257 94.7493 42.4545 97.1149 41.2993 103.259C40.8377 105.714 42.2376 108.139 44.5949 108.967C50.4933 111.038 48.1276 119.867 41.9837 118.712C39.5283 118.25 37.1035 119.65 36.2756 122.008C34.2041 127.906 25.3753 125.54 26.5305 119.396C26.9922 116.941 25.5922 114.516 23.2349 113.688C17.3365 111.617 19.7022 102.788 25.8461 103.943C28.3016 104.405 30.7263 103.005 31.5542 100.648Z" fill="#758CD0"/>
<path d="M29.3175 109.364L34.5137 106.364C34.9919 106.088 35.6035 106.252 35.8797 106.73L38.8797 111.926C39.1558 112.405 38.9919 113.016 38.5137 113.292L33.3175 116.292C32.8392 116.568 32.2276 116.404 31.9515 115.926L28.9515 110.73C28.6755 110.252 28.8394 109.64 29.3175 109.364Z" fill="#5465AE" stroke="#6877BA" stroke-width="2"/>
<path d="M12.3374 118.275C14.4089 112.376 23.2377 114.742 22.0825 120.886C21.6209 123.341 23.0208 125.766 25.3781 126.594C31.2765 128.665 28.9108 137.494 22.7669 136.339C20.3115 135.877 17.8867 137.277 17.0588 139.635C14.9873 145.533 6.15848 143.167 7.31369 137.023C7.77537 134.568 6.37543 132.143 4.01813 131.315C-1.88029 129.244 0.485389 120.415 6.62934 121.57C9.08477 122.032 11.5095 120.632 12.3374 118.275Z" fill="#758CD0"/>
<path d="M10.1007 126.991L15.2969 123.991C15.7751 123.715 16.3867 123.879 16.6629 124.357L19.6629 129.553C19.939 130.031 19.7751 130.643 19.2969 130.919L14.1007 133.919C13.6224 134.195 13.0108 134.031 12.7347 133.553L9.73468 128.357C9.45867 127.879 9.62256 127.267 10.1007 126.991Z" fill="#5465AE" stroke="#6877BA" stroke-width="2"/>
<path d="M32.4136 136.077C34.4851 130.179 43.3139 132.545 42.1587 138.689C41.697 141.144 43.097 143.569 45.4543 144.397C51.3527 146.468 48.987 155.297 42.8431 154.142C40.3876 153.68 37.9629 155.08 37.135 157.437C35.0635 163.336 26.2346 160.97 27.3899 154.826C27.8515 152.371 26.4516 149.946 24.0943 149.118C18.1959 147.047 20.5616 138.218 26.7055 139.373C29.1609 139.835 31.5857 138.435 32.4136 136.077Z" fill="#758CD0"/>
<path d="M30.1769 144.794L35.373 141.794C35.8513 141.518 36.4629 141.682 36.7391 142.16L39.7391 147.356C40.0152 147.834 39.8513 148.446 39.373 148.722L34.1769 151.722C33.6986 151.998 33.087 151.834 32.8108 151.356L29.8108 146.16C29.5348 145.682 29.6987 145.07 30.1769 144.794Z" fill="#5465AE" stroke="#6877BA" stroke-width="2"/>
<path d="M50.5581 153.363C52.6296 147.464 61.4584 149.83 60.3032 155.974C59.8416 158.429 61.2415 160.854 63.5988 161.682C69.4972 163.753 67.1315 172.582 60.9876 171.427C58.5322 170.965 56.1074 172.365 55.2795 174.722C53.208 180.621 44.3792 178.255 45.5344 172.111C45.9961 169.656 44.5961 167.231 42.2388 166.403C36.3404 164.332 38.7061 155.503 44.85 156.658C47.3055 157.12 49.7302 155.72 50.5581 153.363Z" fill="#758CD0"/>
<path d="M48.3214 162.079L53.5176 159.079C53.9958 158.803 54.6074 158.967 54.8836 159.445L57.8836 164.641C58.1597 165.119 57.9959 165.731 57.5176 166.007L52.3214 169.007C51.8431 169.283 51.2315 169.119 50.9554 168.641L47.9554 163.445C47.6794 162.967 47.8433 162.355 48.3214 162.079Z" fill="#5465AE" stroke="#6877BA" stroke-width="2"/>
<path d="M68.7026 170.647C70.7742 164.748 79.603 167.114 78.4478 173.258C77.9861 175.713 79.386 178.138 81.7433 178.966C87.6417 181.038 85.2761 189.866 79.1321 188.711C76.6767 188.249 74.2519 189.649 73.4241 192.007C71.3525 197.905 62.5237 195.539 63.6789 189.395C64.1406 186.94 62.7407 184.515 60.3834 183.687C54.4849 181.616 56.8506 172.787 62.9946 173.942C65.45 174.404 67.8747 173.004 68.7026 170.647Z" fill="#758CD0"/>
<path d="M66.4659 179.363L71.6621 176.363C72.1403 176.087 72.7519 176.251 73.0281 176.729L76.0281 181.925C76.3043 182.404 76.1404 183.015 75.6621 183.291L70.4659 186.291C69.9877 186.567 69.376 186.404 69.0999 185.925L66.0999 180.729C65.8239 180.251 65.9878 179.639 66.4659 179.363Z" fill="#5465AE" stroke="#6877BA" stroke-width="2"/>
<path d="M86.8472 187.932C88.9187 182.033 97.7475 184.399 96.5923 190.543C96.1306 192.998 97.5306 195.423 99.8879 196.251C105.786 198.323 103.421 207.151 97.2766 205.996C94.8212 205.535 92.3965 206.935 91.5686 209.292C89.4971 215.19 80.6682 212.825 81.8235 206.681C82.2851 204.225 80.8852 201.8 78.5279 200.973C72.6295 198.901 74.9952 190.072 81.1391 191.227C83.5945 191.689 86.0193 190.289 86.8472 187.932Z" fill="#758CD0"/>
<path d="M84.6105 196.648L89.8066 193.648C90.2849 193.372 90.8965 193.536 91.1726 194.014L94.1726 199.21C94.4488 199.689 94.2849 200.3 93.8066 200.576L88.6105 203.576C88.1322 203.852 87.5206 203.689 87.2444 203.21L84.2444 198.014C83.9684 197.536 84.1323 196.924 84.6105 196.648Z" fill="#5465AE" stroke="#6877BA" stroke-width="2"/>
<path d="M69.562 206.076C71.6335 200.178 80.4624 202.544 79.3071 208.688C78.8455 211.143 80.2454 213.568 82.6027 214.396C88.5011 216.467 86.1354 225.296 79.9915 224.141C77.5361 223.679 75.1113 225.079 74.2834 227.436C72.2119 233.335 63.3831 230.969 64.5383 224.825C65 222.37 63.6 219.945 61.2427 219.117C55.3443 217.046 57.71 208.217 63.854 209.372C66.3094 209.834 68.7341 208.434 69.562 206.076Z" fill="#758CD0"/>
<path d="M67.3253 214.793L72.5215 211.793C72.9997 211.517 73.6113 211.681 73.8875 212.159L76.8875 217.355C77.1636 217.833 76.9998 218.445 76.5215 218.721L71.3253 221.721C70.847 221.997 70.2354 221.833 69.9593 221.355L66.9593 216.159C66.6833 215.681 66.8472 215.069 67.3253 214.793Z" fill="#5465AE" stroke="#6877BA" stroke-width="2"/>
<path d="M51.4175 188.791C53.489 182.893 62.3178 185.258 61.1626 191.402C60.7009 193.858 62.1009 196.283 64.4582 197.111C70.3566 199.182 67.9909 208.011 61.847 206.856C59.3915 206.394 56.9668 207.794 56.1389 210.151C54.0674 216.05 45.2386 213.684 46.3938 207.54C46.8554 205.085 45.4555 202.66 43.0982 201.832C37.1998 199.76 39.5655 190.932 45.7094 192.087C48.1648 192.548 50.5896 191.149 51.4175 188.791Z" fill="#758CD0"/>
<path d="M49.1808 197.508L54.3769 194.508C54.8552 194.232 55.4668 194.395 55.743 194.874L58.743 200.07C59.0191 200.548 58.8552 201.16 58.3769 201.436L53.1808 204.436C52.7025 204.712 52.0909 204.548 51.8148 204.07L48.8148 198.874C48.5387 198.395 48.7026 197.784 49.1808 197.508Z" fill="#5465AE" stroke="#6877BA" stroke-width="2"/>
<path d="M33.2729 171.507C35.3445 165.609 44.1733 167.974 43.0181 174.118C42.5564 176.574 43.9563 178.998 46.3136 179.826C52.2121 181.898 49.8464 190.727 43.7024 189.571C41.247 189.11 38.8223 190.51 37.9944 192.867C35.9228 198.765 27.094 196.4 28.2492 190.256C28.7109 187.8 27.311 185.376 24.9537 184.548C19.0553 182.476 21.4209 173.647 27.5649 174.803C30.0203 175.264 32.4451 173.864 33.2729 171.507Z" fill="#758CD0"/>
<path d="M31.0362 180.223L36.2324 177.223C36.7106 176.947 37.3222 177.111 37.5984 177.589L40.5984 182.786C40.8746 183.264 40.7107 183.876 40.2324 184.152L35.0362 187.152C34.558 187.428 33.9463 187.264 33.6702 186.786L30.6702 181.589C30.3942 181.111 30.5581 180.5 31.0362 180.223Z" fill="#5465AE" stroke="#6877BA" stroke-width="2"/>
<path d="M15.1284 154.222C17.2 148.323 26.0288 150.689 24.8736 156.833C24.4119 159.289 25.8118 161.713 28.1691 162.541C34.0675 164.613 31.7019 173.442 25.5579 172.286C23.1025 171.825 20.6777 173.225 19.8498 175.582C17.7783 181.48 8.94949 179.115 10.1047 172.971C10.5664 170.515 9.16645 168.09 6.80915 167.263C0.910724 165.191 3.2764 156.362 9.42036 157.517C11.8758 157.979 14.3005 156.579 15.1284 154.222Z" fill="#758CD0"/>
<path d="M12.8917 162.938L18.0879 159.938C18.5661 159.662 19.1777 159.826 19.4539 160.304L22.4539 165.5C22.73 165.979 22.5662 166.59 22.0879 166.866L16.8917 169.866C16.4134 170.143 15.8018 169.979 15.5257 169.5L12.5257 164.304C12.2497 163.826 12.4136 163.214 12.8917 162.938Z" fill="#5465AE" stroke="#6877BA" stroke-width="2"/>
<path d="M-4.94776 136.419C-2.87622 130.521 5.95259 132.886 4.79738 139.03C4.3357 141.486 5.73563 143.911 8.09293 144.738C13.9914 146.81 11.6257 155.639 5.48172 154.484C3.0263 154.022 0.601552 155.422 -0.226331 157.779C-2.29787 163.678 -11.1267 161.312 -9.97147 155.168C-9.50979 152.712 -10.9097 150.288 -13.267 149.46C-19.1654 147.388 -16.7998 138.56 -10.6558 139.715C-8.20039 140.176 -5.77564 138.776 -4.94776 136.419Z" fill="#758CD0"/>
<path d="M-7.18445 145.136L-1.9883 142.136C-1.51005 141.859 -0.898455 142.023 -0.622275 142.502L2.37772 147.698C2.65387 148.176 2.48999 148.788 2.0117 149.064L-3.18445 152.064C-3.66273 152.34 -4.27436 152.176 -4.55048 151.698L-7.55048 146.502C-7.82649 146.023 -7.6626 145.412 -7.18445 145.136Z" fill="#5465AE" stroke="#6877BA" stroke-width="2"/>
<path d="M-2.86377 171.141C-0.792237 165.242 8.03657 167.608 6.88137 173.752C6.41968 176.207 7.81962 178.632 10.1769 179.46C16.0753 181.532 13.7097 190.36 7.56571 189.205C5.11029 188.744 2.68554 190.144 1.85765 192.501C-0.213883 198.399 -9.0427 196.034 -7.88749 189.89C-7.4258 187.434 -8.82574 185.009 -11.183 184.182C-17.0815 182.11 -14.7158 173.281 -8.57183 174.436C-6.11641 174.898 -3.69166 173.498 -2.86377 171.141Z" fill="#758CD0"/>
<path d="M-5.10047 179.857L0.0956835 176.857C0.573931 176.581 1.18553 176.745 1.46171 177.223L4.46171 182.419C4.73785 182.898 4.57398 183.509 4.09568 183.785L-1.10047 186.785C-1.57874 187.061 -2.19038 186.898 -2.46649 186.419L-5.46649 181.223C-5.7425 180.745 -5.57861 180.133 -5.10047 179.857Z" fill="#5465AE" stroke="#6877BA" stroke-width="2"/>
<path d="M15.022 189.392C17.0935 183.493 25.9223 185.859 24.7671 192.003C24.3054 194.458 25.7054 196.883 28.0627 197.711C33.9611 199.783 31.5954 208.611 25.4515 207.456C22.996 206.995 20.5713 208.394 19.7434 210.752C17.6719 216.65 8.84305 214.285 9.99826 208.141C10.4599 205.685 9.06 203.26 6.7027 202.433C0.804279 200.361 3.16996 191.532 9.31391 192.687C11.7693 193.149 14.1941 191.749 15.022 189.392Z" fill="#758CD0"/>
<path d="M12.7853 198.108L17.9814 195.108C18.4597 194.832 19.0713 194.996 19.3475 195.474L22.3475 200.67C22.6236 201.149 22.4597 201.76 21.9814 202.036L16.7853 205.036C16.307 205.312 15.6954 205.149 15.4192 204.67L12.4192 199.474C12.1432 198.996 12.3071 198.384 12.7853 198.108Z" fill="#5465AE" stroke="#6877BA" stroke-width="2"/>
<path d="M34.3911 205.97C36.4626 200.072 45.2915 202.437 44.1362 208.581C43.6746 211.037 45.0745 213.461 47.4318 214.289C53.3302 216.361 50.9645 225.19 44.8206 224.034C42.3652 223.573 39.9404 224.973 39.1125 227.33C37.041 233.228 28.2122 230.863 29.3674 224.719C29.8291 222.263 28.4291 219.839 26.0718 219.011C20.1734 216.939 22.5391 208.11 28.6831 209.266C31.1385 209.727 33.5632 208.327 34.3911 205.97Z" fill="#758CD0"/>
<path d="M32.1544 214.686L37.3506 211.686C37.8288 211.41 38.4404 211.574 38.7166 212.052L41.7166 217.249C41.9927 217.727 41.8289 218.338 41.3506 218.615L36.1544 221.615C35.6761 221.891 35.0645 221.727 34.7884 221.249L31.7884 216.052C31.5124 215.574 31.6763 214.962 32.1544 214.686Z" fill="#5465AE" stroke="#6877BA" stroke-width="2"/>
<path d="M52.5356 223.255C54.6072 217.357 63.436 219.722 62.2808 225.866C61.8191 228.322 63.219 230.746 65.5763 231.574C71.4748 233.646 69.1091 242.475 62.9651 241.32C60.5097 240.858 58.085 242.258 57.2571 244.615C55.1855 250.513 46.3567 248.148 47.5119 242.004C47.9736 239.548 46.5737 237.124 44.2164 236.296C38.318 234.224 40.6836 225.395 46.8276 226.551C49.283 227.012 51.7078 225.612 52.5356 223.255Z" fill="#758CD0"/>
<path d="M50.2989 231.971L55.4951 228.971C55.9733 228.695 56.5849 228.859 56.8611 229.338L59.8611 234.534C60.1373 235.012 59.9734 235.624 59.4951 235.9L54.2989 238.9C53.8207 239.176 53.209 239.012 52.9329 238.534L49.9329 233.338C49.6569 232.859 49.8208 232.248 50.2989 231.971Z" fill="#5465AE" stroke="#6877BA" stroke-width="2"/>
<path d="M72.8711 240.092C74.9426 234.194 83.7714 236.559 82.6162 242.703C82.1545 245.159 83.5545 247.583 85.9118 248.411C91.8102 250.483 89.4445 259.312 83.3006 258.156C80.8451 257.695 78.4204 259.095 77.5925 261.452C75.521 267.35 66.6922 264.985 67.8474 258.841C68.3091 256.385 66.9091 253.961 64.5518 253.133C58.6534 251.061 61.0191 242.232 67.163 243.388C69.6185 243.849 72.0432 242.449 72.8711 240.092Z" fill="#758CD0"/>
<path d="M70.6344 248.808L75.8305 245.808C76.3088 245.532 76.9204 245.696 77.1966 246.174L80.1966 251.371C80.4727 251.849 80.3088 252.46 79.8305 252.737L74.6344 255.737C74.1561 256.013 73.5445 255.849 73.2684 255.371L70.2684 250.174C69.9924 249.696 70.1563 249.085 70.6344 248.808Z" fill="#5465AE" stroke="#6877BA" stroke-width="2"/>
<path d="M89.8975 222.913C91.969 217.015 100.798 219.381 99.6426 225.525C99.1809 227.98 100.581 230.405 102.938 231.233C108.837 233.304 106.471 242.133 100.327 240.978C97.8715 240.516 95.4468 241.916 94.6189 244.273C92.5473 250.172 83.7185 247.806 84.8737 241.662C85.3354 239.207 83.9355 236.782 81.5782 235.954C75.6798 233.882 78.0454 225.054 84.1894 226.209C86.6448 226.671 89.0696 225.271 89.8975 222.913Z" fill="#758CD0"/>
<path d="M87.6608 231.63L92.8569 228.63C93.3352 228.354 93.9468 228.518 94.2229 228.996L97.2229 234.192C97.4991 234.67 97.3352 235.282 96.8569 235.558L91.6608 238.558C91.1825 238.834 90.5709 238.67 90.2947 238.192L87.2947 232.996C87.0187 232.517 87.1826 231.906 87.6608 231.63Z" fill="#5465AE" stroke="#6877BA" stroke-width="2"/>
<path d="M107.183 204.769C109.254 198.87 118.083 201.236 116.928 207.38C116.466 209.835 117.866 212.26 120.223 213.088C126.122 215.16 123.756 223.988 117.612 222.833C115.157 222.371 112.732 223.771 111.904 226.129C109.833 232.027 101.004 229.661 102.159 223.518C102.621 221.062 101.221 218.637 98.8633 217.809C92.9649 215.738 95.3306 206.909 101.475 208.064C103.93 208.526 106.355 207.126 107.183 204.769Z" fill="#758CD0"/>
<path d="M104.946 213.485L110.142 210.485C110.62 210.209 111.232 210.373 111.508 210.851L114.508 216.047C114.784 216.526 114.62 217.137 114.142 217.413L108.946 220.413C108.468 220.689 107.856 220.526 107.58 220.047L104.58 214.851C104.304 214.373 104.468 213.761 104.946 213.485Z" fill="#5465AE" stroke="#6877BA" stroke-width="2"/>
<path d="M104.839 171.013C106.911 165.114 115.74 167.48 114.584 173.624C114.123 176.08 115.523 178.504 117.88 179.332C123.778 181.404 121.413 190.233 115.269 189.077C112.813 188.616 110.389 190.016 109.561 192.373C107.489 198.271 98.6604 195.906 99.8156 189.762C100.277 187.306 98.8774 184.881 96.5201 184.054C90.6217 181.982 92.9873 173.153 99.1313 174.308C101.587 174.77 104.011 173.37 104.839 171.013Z" fill="#758CD0"/>
<path d="M102.603 179.729L107.799 176.729C108.277 176.453 108.889 176.617 109.165 177.095L112.165 182.291C112.441 182.77 112.277 183.381 111.799 183.658L106.603 186.658C106.124 186.934 105.513 186.77 105.237 186.291L102.237 181.095C101.961 180.617 102.125 180.005 102.603 179.729Z" fill="#5465AE" stroke="#6877BA" stroke-width="2"/>
</svg>
