<svg width="35" height="49" viewBox="0 0 35 49" fill="none" xmlns="http://www.w3.org/2000/svg">
<path d="M35 30.5868C35 40.2038 27.165 48 17.5 48C7.83502 48 0 40.2038 0 30.5868C0 20.9697 7.83502 0 17.5 0C27.165 0 35 20.9697 35 30.5868Z" fill="#676767"/>
<path d="M18.3828 29.0703L19.0322 29.9111L19.1309 29.8232L19.1943 29.9033L19.9844 29.2119L24.0996 25.6104L27.3213 28.585L27.335 28.5977L28.1113 29.3438L28.124 29.3262L28.1348 29.3359L28.7998 28.4502L32.3076 23.9014L33.2393 24.5742L34.4912 25.5879C34.8225 27.438 35 29.1414 35 30.5889C35 40.2539 27.165 48.0889 17.5 48.0889C7.83501 48.0889 0 40.2539 0 30.5889C3.8194e-05 29.1806 0.168237 27.5305 0.482422 25.7383L1.31641 24.9053L2.64355 23.5762L5.86328 28.4053L6.58887 29.5361L7.46289 28.4922L12.9033 21.9883L18.3828 29.0703Z" fill="#F4B542"/>
</svg>
