<svg width="363" height="408" viewBox="0 0 363 408" fill="none" xmlns="http://www.w3.org/2000/svg">
<g filter="url(#filter0_f_20_241)">
<path d="M53.0013 229.066C63.6866 239.047 76.7332 242.265 82.1416 236.255C87.55 230.244 83.2722 217.281 72.5869 207.3C61.9016 197.32 48.855 194.101 43.4466 200.112C38.0382 206.122 42.316 219.086 53.0013 229.066Z" fill="#C67C4F"/>
</g>
<path d="M66.406 200.702C54.2059 196.045 42.1764 197.874 39.5373 204.787C36.8983 211.701 65.8648 237.461 78.0649 242.118" stroke="#855239" stroke-width="6" stroke-linecap="round"/>
<g filter="url(#filter1_f_20_241)">
<path d="M333.601 330.529C328.816 333.105 325.186 340.184 322.841 344.876" stroke="#DD9263" stroke-width="0.796724" stroke-linecap="round"/>
</g>
<g filter="url(#filter2_f_20_241)">
<path d="M318.056 331.724C315.447 334.411 313.21 337.184 310.883 340.094" stroke="#DD9263" stroke-width="0.796724" stroke-linecap="round"/>
</g>
<ellipse cx="16.5515" cy="24.4332" rx="16.5515" ry="24.4332" transform="matrix(-0.991172 0.13258 0.13258 0.991172 117.81 11)" fill="#C88A65" stroke="#855239" stroke-width="6"/>
<path d="M126.187 45.7206C207.414 33.7947 253.883 100.649 273.665 152.589C280.467 170.447 289.591 187.556 302.9 201.27C354.066 253.993 357.355 270.631 357.568 315.513C357.64 330.642 354.889 346.12 346.026 358.382C313.525 403.347 263.387 393.867 160.951 393.204C146.066 393.108 130.631 390.772 119.093 381.367C97.0221 363.377 91.9628 338.862 93.5291 314.435C96.3546 270.371 80.6356 228.627 51.4164 195.524C38.0626 180.395 30.7249 167.754 29.2959 163.882C26.4468 156.162 4.89252 63.5294 126.187 45.7206Z" fill="url(#paint0_linear_20_241)" stroke="#855239" stroke-width="6" stroke-linejoin="round"/>
<path d="M126.187 45.7206C207.413 33.7947 253.883 100.649 273.665 152.589C280.467 170.447 289.59 187.556 302.899 201.27C354.066 253.993 357.354 270.631 357.568 315.513C357.64 330.642 354.889 346.12 346.026 358.382C313.525 403.347 263.387 393.867 160.951 393.204C146.065 393.108 130.631 390.772 119.093 381.367C97.0218 363.377 91.9625 338.862 93.5289 314.435C96.3543 270.371 80.6354 228.627 51.4162 195.524C38.0623 180.395 30.7246 167.754 29.2957 163.882C26.4465 156.162 4.89227 63.5294 126.187 45.7206Z" fill="url(#paint1_linear_20_241)" stroke="#855239" stroke-width="6" stroke-linejoin="round"/>
<g filter="url(#filter3_f_20_241)">
<path d="M48.1809 181.781C64.112 205.797 100.067 203.561 112.9 177.756V177.756C125.733 151.951 105.819 121.931 77.0551 123.72V123.72C48.2909 125.509 32.2497 157.765 48.1809 181.781V181.781Z" fill="#C88A65"/>
</g>
<rect width="41.0201" height="7.99696" rx="3.99848" transform="matrix(-0.979149 -0.203144 -0.193697 0.981061 158 105.864)" fill="#713824"/>
<rect width="41.2498" height="7.95393" rx="3.97696" transform="matrix(-0.854095 0.520116 0.501406 0.865212 149.231 78)" fill="#713824"/>
<rect width="19.6201" height="8.79813" rx="4.39906" transform="matrix(0.726935 0.686706 0.712399 -0.701774 72 206.174)" fill="#713824"/>
<rect width="19.6201" height="8.79813" rx="4.39906" transform="matrix(-0.6159 0.787824 0.76517 0.643828 94.084 200)" fill="#713824"/>
<rect width="30.7386" height="10.2462" rx="5.12309" transform="matrix(-0.833323 0.552787 0.552787 0.833323 66.6147 94.5)" fill="#713824"/>
<rect width="20.8189" height="10.2462" rx="5.12309" transform="matrix(-0.902702 -0.430266 -0.430266 0.902702 72.428 94.9576)" fill="#713824"/>
<path d="M191.694 5.14341C181.974 2.74221 171.26 12.2718 167.762 26.4285C166.673 30.8381 166.412 35.1763 166.864 39.1326C166.153 47.6632 169.072 55.0818 175.133 58.0554C184.121 62.4656 196.614 55.4283 203.038 42.3371C208.95 30.2872 207.659 17.3082 200.407 11.8804C198.284 8.46041 195.313 6.03768 191.694 5.14341Z" fill="#C88A65"/>
<path d="M191.694 5.14341L192.413 2.23097L192.413 2.23098L191.694 5.14341ZM167.762 26.4285L164.85 25.709V25.709L167.762 26.4285ZM166.864 39.1326L169.844 38.7927L169.878 39.0867L169.853 39.3815L166.864 39.1326ZM175.133 58.0554L173.811 60.7487L173.811 60.7487L175.133 58.0554ZM203.038 42.3371L205.731 43.6586L205.731 43.6586L203.038 42.3371ZM200.407 11.8804L198.61 14.2822L198.157 13.9433L197.858 13.4627L200.407 11.8804ZM191.694 5.14341L190.974 8.05585C187.351 7.16084 183.223 8.40767 179.388 11.8184C175.566 15.2181 172.297 20.582 170.675 27.148L167.762 26.4285L164.85 25.709C166.725 18.1183 170.562 11.639 175.401 7.3351C180.228 3.04214 186.316 0.724779 192.413 2.23097L191.694 5.14341ZM167.762 26.4285L170.675 27.148C169.667 31.2255 169.435 35.2051 169.844 38.7927L166.864 39.1326L163.883 39.4725C163.39 35.1476 163.678 30.4506 164.85 25.709L167.762 26.4285ZM166.864 39.1326L169.853 39.3815C169.196 47.2772 171.956 53.1551 176.454 55.3622L175.133 58.0554L173.811 60.7487C166.188 57.0084 163.111 48.0492 163.874 38.8836L166.864 39.1326ZM175.133 58.0554L176.454 55.3622C179.804 57.006 184.103 56.6641 188.574 54.1454C193.032 51.6348 197.365 47.0874 200.344 41.0156L203.038 42.3371L205.731 43.6586C202.287 50.678 197.162 56.1948 191.519 59.3731C185.891 62.5434 179.449 63.5151 173.811 60.7487L175.133 58.0554ZM203.038 42.3371L200.344 41.0156C203.084 35.4319 204.107 29.7221 203.671 24.8952C203.233 20.0399 201.362 16.3424 198.61 14.2822L200.407 11.8804L202.205 9.4786C206.704 12.8462 209.105 18.352 209.647 24.3557C210.192 30.3877 208.904 37.1924 205.731 43.6586L203.038 42.3371ZM200.407 11.8804L197.858 13.4627C196.062 10.5693 193.689 8.72661 190.974 8.05584L191.694 5.14341L192.413 2.23098C196.937 3.34876 200.506 6.35148 202.956 10.2981L200.407 11.8804Z" fill="#855239"/>
<path d="M99.1757 136.578C84.745 133.362 76.2629 132.985 60.3853 135.041" stroke="#855239" stroke-width="10" stroke-linecap="round"/>
<path d="M78.5995 135.864C77.669 156.832 75.9831 169.984 85.9571 190.685" stroke="#855239" stroke-width="10" stroke-linecap="round"/>
<g filter="url(#filter4_f_20_241)">
<ellipse cx="245.726" cy="182.203" rx="14.7486" ry="24.7378" transform="rotate(37.3173 245.726 182.203)" fill="#C67C4F"/>
</g>
<g filter="url(#filter5_f_20_241)">
<ellipse cx="289.166" cy="375.702" rx="12.4209" ry="22.9951" transform="rotate(72.9129 289.166 375.702)" fill="#C67C4F"/>
</g>
<path d="M263.597 186.079C268.087 173.816 266.095 161.813 259.146 159.268C252.197 156.723 226.834 186.038 222.343 198.3" stroke="#855239" stroke-width="6" stroke-linecap="round"/>
<path d="M296.045 388.817C283.563 392.654 271.681 390.031 269.507 382.957C267.333 375.884 281.224 364.926 293.706 361.089" stroke="#855239" stroke-width="6" stroke-linecap="round"/>
<g filter="url(#filter6_f_20_241)">
<ellipse cx="121.63" cy="375.629" rx="12.4209" ry="22.9951" transform="rotate(72.9129 121.63 375.629)" fill="#C67C4F"/>
</g>
<path d="M128.509 388.987C116.027 392.824 104.145 390.2 101.971 383.127C99.7967 376.054 113.688 365.095 126.17 361.258" stroke="#855239" stroke-width="6" stroke-linecap="round"/>
<g filter="url(#filter7_f_20_241)">
<path d="M140.041 63.5891C136.486 68.4243 132.991 73.214 129.281 77.9365" stroke="#DD9263" stroke-width="0.796724" stroke-linecap="round"/>
</g>
<g filter="url(#filter8_f_20_241)">
<path d="M124.497 60.0012C121.974 65.0469 116.34 69.4603 111.346 71.9574" stroke="#DD9263" stroke-width="0.796724" stroke-linecap="round"/>
</g>
<g filter="url(#filter9_f_20_241)">
<path d="M110.15 58.8063C106.122 59.8726 102.216 61.3876 98.194 62.3932" stroke="#DD9263" stroke-width="0.796724" stroke-linecap="round"/>
</g>
<g filter="url(#filter10_f_20_241)">
<path d="M162.758 199.888L160.367 192.715" stroke="#DD9263" stroke-width="0.796724" stroke-linecap="round"/>
</g>
<g filter="url(#filter11_f_20_241)">
<path d="M143.628 185.542C144.175 194.29 148.458 200.032 150.802 207.063" stroke="#DD9263" stroke-width="0.796724" stroke-linecap="round"/>
</g>
<g filter="url(#filter12_f_20_241)">
<path d="M130.477 185.542C130.477 192.705 128.677 205.566 136.455 209.454" stroke="#DD9263" stroke-width="0.796724" stroke-linecap="round"/>
</g>
<g filter="url(#filter13_f_20_241)">
<path d="M290.691 209.455C293.824 213.334 296.383 217.246 299.06 221.411" stroke="#DD9263" stroke-width="0.796724" stroke-linecap="round"/>
</g>
<g filter="url(#filter14_f_20_241)">
<path d="M284.712 217.823C286.783 218.913 288.707 220.171 290.69 221.41" stroke="#DD9263" stroke-width="0.796724" stroke-linecap="round"/>
</g>
<g filter="url(#filter15_f_20_241)">
<path d="M144.823 272.822C141.495 277.143 138.354 281.503 135.259 285.974" stroke="#DD9263" stroke-width="0.796724" stroke-linecap="round"/>
</g>
<g filter="url(#filter16_f_20_241)">
<path d="M132.867 274.017C130.907 277.232 128.822 280.359 126.889 283.582" stroke="#DD9263" stroke-width="0.796724" stroke-linecap="round"/>
</g>
<g filter="url(#filter17_f_20_241)">
<path d="M229.712 152.063C230.563 156.529 230.908 160.681 230.908 165.215" stroke="#AB6236" stroke-width="3" stroke-linecap="round"/>
</g>
<g filter="url(#filter18_f_20_241)">
<path d="M218.952 158.042C218.952 162.737 217.756 166.622 217.756 171.194" stroke="#AB6236" stroke-width="3" stroke-linecap="round"/>
</g>
<g filter="url(#filter19_f_20_241)">
<path d="M204.604 168.803C202.792 174.129 200.823 179.22 198.626 184.347" stroke="#AB6236" stroke-width="3" stroke-linecap="round"/>
</g>
<g filter="url(#filter20_f_20_241)">
<path d="M251.234 285.973C251.234 289.836 249.873 300.155 252.43 302.712" stroke="#AB6236" stroke-width="3" stroke-linecap="round"/>
</g>
<g filter="url(#filter21_f_20_241)">
<path d="M241.668 293.147C240.392 297.694 239.277 301.637 239.277 306.299" stroke="#AB6236" stroke-width="3" stroke-linecap="round"/>
</g>
<g filter="url(#filter22_f_20_241)">
<path d="M226.126 285.973C226.126 292.196 225.314 297.374 228.517 302.712" stroke="#AB6236" stroke-width="3" stroke-linecap="round"/>
</g>
<g filter="url(#filter23_f_20_241)">
<path d="M118.52 272.822C117.067 274.82 116.004 276.659 114.933 278.8" stroke="#AB6236" stroke-width="3" stroke-linecap="round"/>
</g>
<g filter="url(#filter24_f_20_241)">
<path d="M149.605 332.602C150.225 334.426 153.306 340.971 151.996 340.971" stroke="#AB6236" stroke-width="3" stroke-linecap="round"/>
</g>
<g filter="url(#filter25_f_20_241)">
<path d="M136.453 318.255C134.946 328.897 132.723 334.333 137.649 343.363" stroke="#AB6236" stroke-width="3" stroke-linecap="round"/>
</g>
<g filter="url(#filter26_f_20_241)">
<path d="M140.04 327.82C140.104 332.034 140.558 335.708 141.236 339.776" stroke="#AB6236" stroke-width="3" stroke-linecap="round"/>
</g>
<path d="M291.764 336.99C280.987 313.965 270.497 267.132 314.758 263.997" stroke="#855239" stroke-width="10" stroke-linecap="round"/>
<defs>
<filter id="filter0_f_20_241" x="40.0543" y="196.034" width="45.4795" height="44.2982" filterUnits="userSpaceOnUse" color-interpolation-filters="sRGB">
<feFlood flood-opacity="0" result="BackgroundImageFix"/>
<feBlend mode="normal" in="SourceGraphic" in2="BackgroundImageFix" result="shape"/>
<feGaussianBlur stdDeviation="0.525211" result="effect1_foregroundBlur_20_241"/>
</filter>
<filter id="filter1_f_20_241" x="321.38" y="329.068" width="13.682" height="17.2689" filterUnits="userSpaceOnUse" color-interpolation-filters="sRGB">
<feFlood flood-opacity="0" result="BackgroundImageFix"/>
<feBlend mode="normal" in="SourceGraphic" in2="BackgroundImageFix" result="shape"/>
<feGaussianBlur stdDeviation="0.531149" result="effect1_foregroundBlur_20_241"/>
</filter>
<filter id="filter2_f_20_241" x="309.422" y="330.264" width="10.0951" height="11.2907" filterUnits="userSpaceOnUse" color-interpolation-filters="sRGB">
<feFlood flood-opacity="0" result="BackgroundImageFix"/>
<feBlend mode="normal" in="SourceGraphic" in2="BackgroundImageFix" result="shape"/>
<feGaussianBlur stdDeviation="0.531149" result="effect1_foregroundBlur_20_241"/>
</filter>
<filter id="filter3_f_20_241" x="39.789" y="121.543" width="79.1863" height="79.0832" filterUnits="userSpaceOnUse" color-interpolation-filters="sRGB">
<feFlood flood-opacity="0" result="BackgroundImageFix"/>
<feBlend mode="normal" in="SourceGraphic" in2="BackgroundImageFix" result="shape"/>
<feGaussianBlur stdDeviation="1.05042" result="effect1_foregroundBlur_20_241"/>
</filter>
<filter id="filter4_f_20_241" x="225.636" y="159.537" width="40.1804" height="45.3316" filterUnits="userSpaceOnUse" color-interpolation-filters="sRGB">
<feFlood flood-opacity="0" result="BackgroundImageFix"/>
<feBlend mode="normal" in="SourceGraphic" in2="BackgroundImageFix" result="shape"/>
<feGaussianBlur stdDeviation="0.525211" result="effect1_foregroundBlur_20_241"/>
</filter>
<filter id="filter5_f_20_241" x="265.831" y="360.989" width="46.6697" height="29.4267" filterUnits="userSpaceOnUse" color-interpolation-filters="sRGB">
<feFlood flood-opacity="0" result="BackgroundImageFix"/>
<feBlend mode="normal" in="SourceGraphic" in2="BackgroundImageFix" result="shape"/>
<feGaussianBlur stdDeviation="0.525211" result="effect1_foregroundBlur_20_241"/>
</filter>
<filter id="filter6_f_20_241" x="98.2948" y="360.916" width="46.6697" height="29.4267" filterUnits="userSpaceOnUse" color-interpolation-filters="sRGB">
<feFlood flood-opacity="0" result="BackgroundImageFix"/>
<feBlend mode="normal" in="SourceGraphic" in2="BackgroundImageFix" result="shape"/>
<feGaussianBlur stdDeviation="0.525211" result="effect1_foregroundBlur_20_241"/>
</filter>
<filter id="filter7_f_20_241" x="127.82" y="62.1284" width="13.682" height="17.2688" filterUnits="userSpaceOnUse" color-interpolation-filters="sRGB">
<feFlood flood-opacity="0" result="BackgroundImageFix"/>
<feBlend mode="normal" in="SourceGraphic" in2="BackgroundImageFix" result="shape"/>
<feGaussianBlur stdDeviation="0.531149" result="effect1_foregroundBlur_20_241"/>
</filter>
<filter id="filter8_f_20_241" x="109.885" y="58.5405" width="16.0733" height="14.8777" filterUnits="userSpaceOnUse" color-interpolation-filters="sRGB">
<feFlood flood-opacity="0" result="BackgroundImageFix"/>
<feBlend mode="normal" in="SourceGraphic" in2="BackgroundImageFix" result="shape"/>
<feGaussianBlur stdDeviation="0.531149" result="effect1_foregroundBlur_20_241"/>
</filter>
<filter id="filter9_f_20_241" x="96.7331" y="57.3456" width="14.8778" height="6.50839" filterUnits="userSpaceOnUse" color-interpolation-filters="sRGB">
<feFlood flood-opacity="0" result="BackgroundImageFix"/>
<feBlend mode="normal" in="SourceGraphic" in2="BackgroundImageFix" result="shape"/>
<feGaussianBlur stdDeviation="0.531149" result="effect1_foregroundBlur_20_241"/>
</filter>
<filter id="filter10_f_20_241" x="158.906" y="191.254" width="5.31283" height="10.0952" filterUnits="userSpaceOnUse" color-interpolation-filters="sRGB">
<feFlood flood-opacity="0" result="BackgroundImageFix"/>
<feBlend mode="normal" in="SourceGraphic" in2="BackgroundImageFix" result="shape"/>
<feGaussianBlur stdDeviation="0.531149" result="effect1_foregroundBlur_20_241"/>
</filter>
<filter id="filter11_f_20_241" x="142.167" y="184.081" width="10.0951" height="24.4426" filterUnits="userSpaceOnUse" color-interpolation-filters="sRGB">
<feFlood flood-opacity="0" result="BackgroundImageFix"/>
<feBlend mode="normal" in="SourceGraphic" in2="BackgroundImageFix" result="shape"/>
<feGaussianBlur stdDeviation="0.531149" result="effect1_foregroundBlur_20_241"/>
</filter>
<filter id="filter12_f_20_241" x="128.836" y="184.081" width="9.07919" height="26.8338" filterUnits="userSpaceOnUse" color-interpolation-filters="sRGB">
<feFlood flood-opacity="0" result="BackgroundImageFix"/>
<feBlend mode="normal" in="SourceGraphic" in2="BackgroundImageFix" result="shape"/>
<feGaussianBlur stdDeviation="0.531149" result="effect1_foregroundBlur_20_241"/>
</filter>
<filter id="filter13_f_20_241" x="289.23" y="207.994" width="11.2909" height="14.8776" filterUnits="userSpaceOnUse" color-interpolation-filters="sRGB">
<feFlood flood-opacity="0" result="BackgroundImageFix"/>
<feBlend mode="normal" in="SourceGraphic" in2="BackgroundImageFix" result="shape"/>
<feGaussianBlur stdDeviation="0.531149" result="effect1_foregroundBlur_20_241"/>
</filter>
<filter id="filter14_f_20_241" x="283.251" y="216.362" width="8.8995" height="6.5083" filterUnits="userSpaceOnUse" color-interpolation-filters="sRGB">
<feFlood flood-opacity="0" result="BackgroundImageFix"/>
<feBlend mode="normal" in="SourceGraphic" in2="BackgroundImageFix" result="shape"/>
<feGaussianBlur stdDeviation="0.531149" result="effect1_foregroundBlur_20_241"/>
</filter>
<filter id="filter15_f_20_241" x="133.798" y="271.361" width="12.4864" height="16.0732" filterUnits="userSpaceOnUse" color-interpolation-filters="sRGB">
<feFlood flood-opacity="0" result="BackgroundImageFix"/>
<feBlend mode="normal" in="SourceGraphic" in2="BackgroundImageFix" result="shape"/>
<feGaussianBlur stdDeviation="0.531149" result="effect1_foregroundBlur_20_241"/>
</filter>
<filter id="filter16_f_20_241" x="125.428" y="272.556" width="8.8995" height="12.4864" filterUnits="userSpaceOnUse" color-interpolation-filters="sRGB">
<feFlood flood-opacity="0" result="BackgroundImageFix"/>
<feBlend mode="normal" in="SourceGraphic" in2="BackgroundImageFix" result="shape"/>
<feGaussianBlur stdDeviation="0.531149" result="effect1_foregroundBlur_20_241"/>
</filter>
<filter id="filter17_f_20_241" x="227.15" y="149.501" width="6.3204" height="18.2767" filterUnits="userSpaceOnUse" color-interpolation-filters="sRGB">
<feFlood flood-opacity="0" result="BackgroundImageFix"/>
<feBlend mode="normal" in="SourceGraphic" in2="BackgroundImageFix" result="shape"/>
<feGaussianBlur stdDeviation="0.531149" result="effect1_foregroundBlur_20_241"/>
</filter>
<filter id="filter18_f_20_241" x="215.194" y="155.48" width="6.32015" height="18.2764" filterUnits="userSpaceOnUse" color-interpolation-filters="sRGB">
<feFlood flood-opacity="0" result="BackgroundImageFix"/>
<feBlend mode="normal" in="SourceGraphic" in2="BackgroundImageFix" result="shape"/>
<feGaussianBlur stdDeviation="0.531149" result="effect1_foregroundBlur_20_241"/>
</filter>
<filter id="filter19_f_20_241" x="196.063" y="166.241" width="11.1036" height="20.6684" filterUnits="userSpaceOnUse" color-interpolation-filters="sRGB">
<feFlood flood-opacity="0" result="BackgroundImageFix"/>
<feBlend mode="normal" in="SourceGraphic" in2="BackgroundImageFix" result="shape"/>
<feGaussianBlur stdDeviation="0.531149" result="effect1_foregroundBlur_20_241"/>
</filter>
<filter id="filter20_f_20_241" x="248.31" y="283.411" width="6.68221" height="21.8632" filterUnits="userSpaceOnUse" color-interpolation-filters="sRGB">
<feFlood flood-opacity="0" result="BackgroundImageFix"/>
<feBlend mode="normal" in="SourceGraphic" in2="BackgroundImageFix" result="shape"/>
<feGaussianBlur stdDeviation="0.531149" result="effect1_foregroundBlur_20_241"/>
</filter>
<filter id="filter21_f_20_241" x="236.714" y="290.584" width="7.51644" height="18.2768" filterUnits="userSpaceOnUse" color-interpolation-filters="sRGB">
<feFlood flood-opacity="0" result="BackgroundImageFix"/>
<feBlend mode="normal" in="SourceGraphic" in2="BackgroundImageFix" result="shape"/>
<feGaussianBlur stdDeviation="0.531149" result="effect1_foregroundBlur_20_241"/>
</filter>
<filter id="filter22_f_20_241" x="223.466" y="283.411" width="7.61337" height="21.8635" filterUnits="userSpaceOnUse" color-interpolation-filters="sRGB">
<feFlood flood-opacity="0" result="BackgroundImageFix"/>
<feBlend mode="normal" in="SourceGraphic" in2="BackgroundImageFix" result="shape"/>
<feGaussianBlur stdDeviation="0.531149" result="effect1_foregroundBlur_20_241"/>
</filter>
<filter id="filter23_f_20_241" x="112.371" y="270.26" width="8.71176" height="11.1031" filterUnits="userSpaceOnUse" color-interpolation-filters="sRGB">
<feFlood flood-opacity="0" result="BackgroundImageFix"/>
<feBlend mode="normal" in="SourceGraphic" in2="BackgroundImageFix" result="shape"/>
<feGaussianBlur stdDeviation="0.531149" result="effect1_foregroundBlur_20_241"/>
</filter>
<filter id="filter24_f_20_241" x="147.042" y="330.039" width="7.83676" height="13.4943" filterUnits="userSpaceOnUse" color-interpolation-filters="sRGB">
<feFlood flood-opacity="0" result="BackgroundImageFix"/>
<feBlend mode="normal" in="SourceGraphic" in2="BackgroundImageFix" result="shape"/>
<feGaussianBlur stdDeviation="0.531149" result="effect1_foregroundBlur_20_241"/>
</filter>
<filter id="filter25_f_20_241" x="132.063" y="315.693" width="8.14828" height="30.2331" filterUnits="userSpaceOnUse" color-interpolation-filters="sRGB">
<feFlood flood-opacity="0" result="BackgroundImageFix"/>
<feBlend mode="normal" in="SourceGraphic" in2="BackgroundImageFix" result="shape"/>
<feGaussianBlur stdDeviation="0.531149" result="effect1_foregroundBlur_20_241"/>
</filter>
<filter id="filter26_f_20_241" x="137.478" y="325.257" width="6.3204" height="17.081" filterUnits="userSpaceOnUse" color-interpolation-filters="sRGB">
<feFlood flood-opacity="0" result="BackgroundImageFix"/>
<feBlend mode="normal" in="SourceGraphic" in2="BackgroundImageFix" result="shape"/>
<feGaussianBlur stdDeviation="0.531149" result="effect1_foregroundBlur_20_241"/>
</filter>
<linearGradient id="paint0_linear_20_241" x1="102.269" y1="72.0067" x2="293.378" y2="364.153" gradientUnits="userSpaceOnUse">
<stop stop-color="#D1A278"/>
<stop offset="1" stop-color="#C98B66"/>
</linearGradient>
<linearGradient id="paint1_linear_20_241" x1="102.268" y1="72.0067" x2="293.378" y2="364.153" gradientUnits="userSpaceOnUse">
<stop stop-color="#D1A278"/>
<stop offset="1" stop-color="#C98B66"/>
</linearGradient>
</defs>
</svg>

