<svg width="274" height="421" viewBox="0 0 274 421" fill="none" xmlns="http://www.w3.org/2000/svg">
<path d="M179.358 298.308L265.895 298.308C293.28 298.308 318.474 284.618 318.474 253.407C318.474 214.42 318.474 74.855 318.474 65.5463C318.474 32.6922 328.88 11.337 372.696 11.337C427.466 11.337 548.508 11.337 669.002 11.337" stroke="#638A4E" stroke-width="2"/>
<ellipse cx="173.742" cy="130.126" rx="43.0456" ry="57.3941" transform="rotate(-108.967 173.742 130.126)" fill="#AFCFB1"/>
<path d="M131.116 143.434L319.42 78.7187" stroke="#74AA63" stroke-width="2"/>
<path d="M2.59727e-06 302.849C8.24946e-06 320.522 14.3269 334.849 32 334.849C38.735 334.849 44.9823 332.766 50.1377 329.212C71.6044 317.458 115.963 306.592 116 306.583L116 299.116C116 299.116 71.6036 288.24 50.1309 276.48C44.9769 272.929 38.7318 270.849 32 270.849C14.3269 270.849 1.16284e-06 285.176 2.59727e-06 302.849Z" fill="#F28E74"/>
<path d="M38.9336 387.76C51.4303 400.256 71.6916 400.256 84.1884 387.76C88.9508 382.997 91.8953 377.107 93.0279 370.949C99.8958 347.458 123.578 308.408 123.598 308.375L118.318 303.095C118.318 303.095 79.2351 326.798 55.7356 333.666C49.5807 334.8 43.6937 337.745 38.9336 342.505C26.4368 355.002 26.4368 375.263 38.9336 387.76Z" fill="#F28E74"/>
<path d="M126.504 420.27C144.177 420.27 158.504 405.943 158.504 388.27C158.504 381.535 156.421 375.288 152.867 370.132C141.113 348.666 130.246 304.307 130.237 304.27L122.77 304.27C122.77 304.27 111.895 348.667 100.135 370.139C96.5843 375.293 94.5039 381.538 94.5039 388.27C94.5039 405.943 108.831 420.27 126.504 420.27Z" fill="#F28E74"/>
<path d="M211.415 381.337C223.912 368.84 223.912 348.579 211.415 336.082C206.653 331.32 200.762 328.375 194.604 327.243C171.113 320.375 132.063 296.692 132.031 296.673L126.751 301.952C126.751 301.952 150.454 341.035 157.321 364.535C158.455 370.69 161.4 376.577 166.16 381.337C178.657 393.834 198.918 393.834 211.415 381.337Z" fill="#F28E74"/>
<path d="M243.927 293.766C243.927 276.093 229.6 261.766 211.927 261.766C205.192 261.766 198.944 263.849 193.789 267.403C172.322 279.157 127.964 290.024 127.927 290.033L127.927 297.5C127.927 297.5 172.323 308.375 193.796 320.135C198.95 323.686 205.195 325.766 211.927 325.766C229.6 325.766 243.927 311.439 243.927 293.766Z" fill="#F28E74"/>
<path d="M204.993 208.856C192.496 196.359 172.235 196.359 159.738 208.856C154.976 213.618 152.031 219.509 150.899 225.667C144.031 249.158 120.349 288.208 120.329 288.24L125.609 293.52C125.609 293.52 164.692 269.817 188.191 262.95C194.346 261.816 200.233 258.871 204.993 254.111C217.49 241.614 217.49 221.353 204.993 208.856Z" fill="#F28E74"/>
<path d="M117.423 176.345C99.7497 176.345 85.4229 190.672 85.4229 208.345C85.4229 215.08 87.506 221.328 91.0596 226.483C102.814 247.95 113.68 292.308 113.689 292.345L121.156 292.345C121.156 292.345 132.032 247.949 143.792 226.476C147.342 221.322 149.423 215.077 149.423 208.345C149.423 190.672 135.096 176.345 117.423 176.345Z" fill="#F28E74"/>
<path d="M32.5098 215.278C20.013 227.775 20.013 248.036 32.5098 260.533C37.2722 265.296 43.1627 268.24 49.3208 269.373C72.8114 276.241 111.862 299.923 111.894 299.943L117.174 294.663C117.174 294.663 93.4711 255.58 86.6035 232.08C85.4697 225.925 82.5247 220.038 77.7646 215.278C65.2678 202.782 45.0066 202.782 32.5098 215.278Z" fill="#F28E74"/>
<path d="M124.244 275.576C124.012 272.779 119.917 272.779 119.685 275.576C119.495 277.867 116.424 278.478 115.372 276.434C114.087 273.938 110.304 275.506 111.16 278.179C111.861 280.368 109.257 282.108 107.503 280.622C105.361 278.808 102.465 281.704 104.279 283.846C105.765 285.6 104.025 288.204 101.836 287.503C99.1626 286.646 97.5954 290.43 100.091 291.715C102.135 292.767 101.524 295.838 99.2335 296.028C96.4357 296.26 96.4357 300.355 99.2335 300.587C101.524 300.777 102.135 303.848 100.091 304.9C97.5954 306.185 99.1626 309.969 101.836 309.113C104.025 308.411 105.765 311.015 104.279 312.769C102.465 314.912 105.361 317.807 107.503 315.993C109.257 314.507 111.861 316.247 111.16 318.436C110.304 321.11 114.087 322.677 115.372 320.181C116.424 318.137 119.495 318.748 119.685 321.039C119.917 323.837 124.012 323.837 124.244 321.039C124.434 318.748 127.505 318.137 128.558 320.181C129.843 322.677 133.626 321.11 132.77 318.436C132.068 316.247 134.672 314.507 136.426 315.993C138.569 317.807 141.464 314.912 139.65 312.769C138.165 311.015 139.904 308.411 142.093 309.113C144.767 309.969 146.334 306.185 143.838 304.9C141.794 303.848 142.405 300.777 144.696 300.587C147.494 300.355 147.494 296.26 144.696 296.028C142.405 295.838 141.794 292.767 143.838 291.715C146.334 290.43 144.767 286.646 142.093 287.503C139.904 288.204 138.165 285.6 139.65 283.846C141.464 281.704 138.569 278.808 136.426 280.622C134.672 282.108 132.068 280.368 132.77 278.179C133.626 275.506 129.843 273.938 128.558 276.434C127.505 278.478 124.434 277.867 124.244 275.576Z" fill="#F4B442"/>
<path d="M95.3311 272.55L125.03 302.249" stroke="#DC8433" stroke-width="2"/>
<circle cx="6" cy="6" r="6" transform="matrix(-0.707107 0.707107 0.707107 0.707107 95.3311 264.065)" fill="#F4B442"/>
<path d="M87.5024 284.703L126.305 300.776" stroke="#DC8433" stroke-width="2"/>
<circle cx="6" cy="6" r="6" transform="matrix(-0.382684 0.92388 0.92388 0.382684 84.2544 276.864)" fill="#F4B442"/>
<path d="M84.9189 298.927L126.919 298.927" stroke="#DC8433" stroke-width="2"/>
<circle cx="6" cy="6" r="6" transform="matrix(-1.10135e-07 1 1 1.10135e-07 78.9189 292.927)" fill="#F4B442"/>
<path d="M87.9761 313.057L126.779 296.984" stroke="#DC8433" stroke-width="2"/>
<circle cx="6" cy="6" r="6" transform="matrix(0.382683 0.92388 0.92388 -0.382683 80.1362 309.809)" fill="#F4B442"/>
<path d="M96.2065 324.941L125.905 295.242" stroke="#DC8433" stroke-width="2"/>
<circle cx="6" cy="6" r="6" transform="matrix(0.707107 0.707107 0.707107 -0.707107 87.7222 324.941)" fill="#F4B442"/>
<path d="M108.36 332.77L124.433 293.967" stroke="#DC8433" stroke-width="2"/>
<circle cx="6" cy="6" r="6" transform="matrix(0.92388 0.382684 0.382684 -0.92388 100.521 336.018)" fill="#F4B442"/>
<path d="M122.584 335.353L122.584 293.353" stroke="#DC8433" stroke-width="2"/>
<circle cx="6" cy="6" r="6" transform="matrix(1 7.78772e-08 7.78772e-08 -1 116.584 341.353)" fill="#F4B442"/>
<path d="M136.713 332.296L120.641 293.493" stroke="#DC8433" stroke-width="2"/>
<circle cx="6" cy="6" r="6" transform="matrix(0.92388 -0.382683 -0.382683 -0.92388 133.465 340.136)" fill="#F4B442"/>
<path d="M148.597 324.065L118.898 294.366" stroke="#DC8433" stroke-width="2"/>
<circle cx="6" cy="6" r="6" transform="matrix(0.707107 -0.707107 -0.707107 -0.707107 148.597 332.55)" fill="#F4B442"/>
<path d="M156.425 311.912L117.622 295.839" stroke="#DC8433" stroke-width="2"/>
<circle cx="6" cy="6" r="6" transform="matrix(0.382683 -0.92388 -0.92388 -0.382683 159.674 319.752)" fill="#F4B442"/>
<path d="M159.01 297.688L117.01 297.688" stroke="#DC8433" stroke-width="2"/>
<circle cx="6" cy="6" r="6" transform="matrix(2.28097e-08 -1 -1 -2.28097e-08 165.01 303.688)" fill="#F4B442"/>
<path d="M155.951 283.559L117.148 299.631" stroke="#DC8433" stroke-width="2"/>
<circle cx="6" cy="6" r="6" transform="matrix(-0.382683 -0.92388 -0.92388 0.382683 163.791 286.806)" fill="#F4B442"/>
<path d="M147.721 271.675L118.022 301.373" stroke="#DC8433" stroke-width="2"/>
<circle cx="6" cy="6" r="6" transform="matrix(-0.707107 -0.707107 -0.707107 0.707107 156.205 271.675)" fill="#F4B442"/>
<path d="M135.567 263.845L119.494 302.648" stroke="#DC8433" stroke-width="2"/>
<circle cx="6" cy="6" r="6" transform="matrix(-0.92388 -0.382683 -0.382683 0.92388 143.406 260.598)" fill="#F4B442"/>
<path d="M121.344 261.262V303.262" stroke="#DC8433" stroke-width="2"/>
<circle cx="6" cy="6" r="6" transform="matrix(-1 0 0 1 127.343 255.262)" fill="#F4B442"/>
<path d="M107.216 264.319L123.289 303.122" stroke="#DC8433" stroke-width="2"/>
<circle cx="6" cy="6" r="6" transform="matrix(-0.92388 0.382683 0.382683 0.92388 110.464 256.48)" fill="#F4B442"/>
</svg>
