<svg width="260" height="260" viewBox="0 0 260 260" fill="none" xmlns="http://www.w3.org/2000/svg">
<path d="M127.347 129.337C127.347 142.158 63.0798 152.551 40.6368 152.551C18.1937 152.551 0 142.158 0 129.337C0 116.516 18.1937 106.123 40.6368 106.123C63.0798 106.123 127.347 116.516 127.347 129.337Z" fill="#70AC74"/>
<path d="M132.653 129.337C132.653 142.158 196.92 152.551 219.363 152.551C241.806 152.551 260 142.158 260 129.337C260 116.516 241.806 106.123 219.363 106.123C196.92 106.123 132.653 116.516 132.653 129.337Z" fill="#70AC74"/>
<path d="M133.006 131.848C123.629 140.591 159.855 194.684 175.16 211.098C190.465 227.513 210.474 233.732 219.851 224.989C229.228 216.246 224.423 195.851 209.117 179.436C193.812 163.022 142.384 123.105 133.006 131.848Z" fill="#70AC74"/>
<path d="M133.006 128.152C123.629 119.409 159.855 65.3163 175.16 48.9015C190.465 32.4868 210.474 26.2678 219.851 35.011C229.228 43.7542 224.423 64.1488 209.117 80.5636C193.812 96.9784 142.384 136.895 133.006 128.152Z" fill="#70AC74"/>
<path d="M126.994 128.152C136.371 119.409 100.146 65.3163 84.8404 48.9015C69.5353 32.4868 49.5264 26.2678 40.1493 35.011C30.7721 43.7542 35.5776 64.1488 50.8827 80.5636C66.1878 96.9784 117.617 136.895 126.994 128.152Z" fill="#70AC74"/>
<path d="M126.994 127.868C136.371 136.611 100.146 190.704 84.8404 207.119C69.5353 223.533 49.5264 229.753 40.1493 221.009C30.7721 212.266 35.5776 191.871 50.8827 175.457C66.1878 159.042 117.617 119.125 126.994 127.868Z" fill="#70AC74"/>
<path d="M128.01 127.347C115.189 127.347 104.796 63.0798 104.796 40.6368C104.796 18.1937 115.189 0 128.01 0C140.831 0 151.224 18.1937 151.224 40.6368C151.224 63.0798 140.831 127.347 128.01 127.347Z" fill="#70AC74"/>
<path d="M128.01 132.653C115.189 132.653 104.796 196.92 104.796 219.363C104.796 241.806 115.189 260 128.01 260C140.831 260 151.224 241.806 151.224 219.363C151.224 196.92 140.831 132.653 128.01 132.653Z" fill="#70AC74"/>
<circle cx="128.01" cy="129.337" r="20.5612" fill="#F2E2BA"/>
<path d="M185.153 199.519C167.893 212.059 143.735 208.234 131.195 190.974C126.067 183.916 123.677 175.703 123.823 167.604L123.677 167.709L123.88 166.091C123.979 164.358 124.195 162.634 124.524 160.931L129.3 122.643L165.918 129.797C168.566 130.037 171.185 130.547 173.731 131.323L173.754 131.327L173.751 131.329C181.499 133.693 188.571 138.504 193.699 145.563C206.238 162.822 202.412 186.979 185.153 199.519Z" fill="#FFEDF2"/>
<path d="M73.1726 197.909C55.9128 185.369 52.0861 161.211 64.6258 143.951C69.7541 136.893 76.8263 132.083 84.5742 129.718L84.4288 129.612L86.0307 129.305C87.7095 128.863 89.4156 128.536 91.1369 128.323L129.027 121.034L133.539 158.07C134.129 160.662 134.453 163.311 134.502 165.972L134.505 165.995L134.503 165.993C134.648 174.092 132.258 182.304 127.13 189.363C114.59 206.622 90.4323 210.448 73.1726 197.909Z" fill="#FFEDF2"/>
<path d="M40.102 90.9099C46.6946 70.6199 68.4874 59.5153 88.7775 66.1077C97.0753 68.8038 103.835 74.0434 108.478 80.6814L108.534 80.5105L109.322 81.939C110.26 83.3992 111.099 84.9206 111.834 86.4918L130.474 120.275L96.6453 136.011C94.3624 137.373 91.9433 138.5 89.4273 139.369L89.4066 139.378L89.4075 139.376C81.7497 142.017 73.2008 142.281 64.9033 139.585C44.6134 132.992 33.5096 111.2 40.102 90.9099Z" fill="#FFEDF2"/>
<path d="M131.645 26.3921C152.979 26.3921 170.275 43.6868 170.275 65.021C170.275 73.7458 167.381 81.7942 162.502 88.2612H162.682L161.567 89.4517C160.468 90.7956 159.28 92.0633 158.013 93.2476L131.644 121.416L106.224 94.105C104.223 92.3547 102.404 90.4021 100.8 88.2778L100.784 88.2612H100.787C95.9093 81.7943 93.0159 73.7456 93.0159 65.021C93.0161 43.6869 110.311 26.3923 131.645 26.3921Z" fill="#FFEDF2"/>
<path d="M221.289 93.5164C227.881 113.806 216.778 135.6 196.488 142.193C188.19 144.889 179.641 144.623 171.983 141.982L172.039 142.153L170.562 141.46C168.944 140.831 167.372 140.093 165.854 139.253L130.916 122.879L149.035 90.2641C150.081 87.8204 151.376 85.4871 152.9 83.305L152.911 83.285L152.912 83.2878C157.555 76.65 164.316 71.4111 172.614 68.7151C192.904 62.1227 214.696 73.2265 221.289 93.5164Z" fill="#FFEDF2"/>
<path d="M125.608 91.7245C125.972 92.259 126.19 92.7752 126.262 93.2732C126.375 93.7582 126.461 94.4904 126.521 95.4699L128.692 130.924C128.872 133.862 128.206 135.834 126.694 136.841C125.937 137.344 124.97 137.785 123.792 138.163C122.614 138.541 121.673 138.734 120.969 138.743C120.266 138.752 119.722 138.666 119.338 138.485C118.954 138.304 118.644 137.97 118.407 137.481C118.159 136.823 117.99 135.748 117.898 134.257L116.588 112.857C115.653 114.504 114.299 117.087 112.527 120.609C110.751 124.088 109.622 126.275 109.138 127.168C108.654 128.062 108.32 128.69 108.135 129.053C107.948 129.374 107.463 129.92 106.682 130.692C105.939 131.408 105.1 131.916 104.166 132.216C103.272 132.503 102.426 132.557 101.628 132.379C100.868 132.145 100.312 131.868 99.9614 131.546L99.4308 131C98.5531 130.196 96.8102 128.454 94.202 125.774C91.5912 123.051 90.1764 121.594 89.9576 121.404L91.276 142.931C91.336 143.911 91.341 144.669 91.2911 145.206C91.2791 145.688 91.1289 146.279 90.8404 146.979C90.3015 148.325 88.7523 149.408 86.1928 150.23C83.7147 151.025 82.1357 150.945 81.4559 149.991C81.0943 149.499 80.8573 149.011 80.7448 148.526C80.6728 148.028 80.6056 147.268 80.543 146.246L78.3717 110.792C78.3117 109.813 78.2877 109.082 78.2996 108.601C78.3496 108.063 78.5175 107.423 78.8034 106.68C79.345 105.377 80.8955 104.315 83.4549 103.494C84.5518 103.142 85.4953 102.991 86.2855 103.041C87.1136 103.036 87.6587 103.144 87.9207 103.363L88.3098 103.629L103.309 118.226C109.628 106.428 113.852 98.6239 115.98 94.8144C116.6 93.443 118.19 92.3465 120.749 91.5251C123.349 90.6907 124.969 90.7572 125.608 91.7245Z" fill="#F4B442"/>
<path d="M187.651 108.209C187.937 108.952 188.084 109.586 188.094 110.11C188.144 110.647 188.139 111.405 188.079 112.385L185.907 147.838C185.727 150.777 184.85 152.254 183.275 152.269C182.487 152.277 181.504 152.092 180.326 151.714C179.148 151.336 178.22 150.93 177.543 150.495C176.865 150.06 176.353 149.635 176.005 149.22C175.658 148.804 175.399 148.287 175.23 147.668C175.071 146.879 175.038 145.739 175.129 144.249L176.44 122.849C175.343 123.843 173.731 125.475 171.604 127.746C169.479 129.973 168.13 131.364 167.558 131.919C166.985 132.473 166.588 132.867 166.367 133.1C166.148 133.29 165.617 133.51 164.773 133.761C163.973 133.981 163.105 133.942 162.171 133.642C161.277 133.355 160.457 132.875 159.711 132.201C159.009 131.498 158.508 130.881 158.209 130.351L157.765 129.492C157.017 128.167 155.551 125.395 153.365 121.176C151.182 116.914 149.997 114.623 149.809 114.303L148.491 135.83C148.431 136.81 148.345 137.542 148.232 138.027C148.163 138.482 147.947 138.956 147.586 139.448C146.906 140.402 145.286 140.469 142.727 139.647C140.249 138.852 138.74 137.782 138.201 136.436C137.913 135.736 137.744 135.117 137.694 134.58C137.684 134.056 137.711 133.283 137.774 132.261L139.945 96.807C140.005 95.8275 140.069 95.1101 140.139 94.6547C140.251 94.1697 140.49 93.66 140.854 93.1255C141.531 92.2138 143.149 92.1686 145.709 92.99C146.806 93.342 147.731 93.7909 148.484 94.3368C149.281 94.8531 149.793 95.2994 150.018 95.6757L150.36 96.1763L163.027 119.652C170.521 112.286 175.519 107.442 178.022 105.119C178.784 104.191 180.444 104.137 183.003 104.959C185.603 105.793 187.152 106.877 187.651 108.209Z" fill="#F4B442"/>
</svg>

