<svg width="341" height="722" viewBox="0 0 341 722" fill="none" xmlns="http://www.w3.org/2000/svg">
<path d="M166.153 185.519C148.894 198.059 124.736 194.234 112.196 176.974C107.067 169.916 104.678 161.703 104.823 153.604L104.678 153.709L104.881 152.091C104.979 150.358 105.195 148.634 105.524 146.931L110.301 108.643L146.919 115.796C149.566 116.036 152.185 116.547 154.732 117.323L154.754 117.327L154.752 117.329C162.499 119.693 169.571 124.504 174.699 131.562C187.239 148.822 183.413 172.979 166.153 185.519Z" fill="#FAE0BE"/>
<path d="M54.1729 183.909C36.9131 171.369 33.0864 147.211 45.6261 129.951C50.7544 122.893 57.8266 118.082 65.5745 115.718L65.4291 115.612L67.0311 115.305C68.7098 114.863 70.416 114.536 72.1372 114.323L110.027 107.034L114.539 144.07C115.129 146.662 115.453 149.311 115.502 151.972L115.505 151.995L115.503 151.993C115.648 160.092 113.258 168.304 108.13 175.363C95.5898 192.622 71.4326 196.448 54.1729 183.909Z" fill="#FAE0BE"/>
<path d="M21.1025 76.9099C27.6952 56.6198 49.488 45.5152 69.7781 52.1076C78.0758 54.8037 84.836 60.0434 89.479 66.6813L89.5346 66.5104L90.3221 67.9389C91.2608 69.3991 92.0993 70.9206 92.8341 72.4917L111.475 106.275L77.6458 122.011C75.363 123.373 72.9439 124.499 70.4278 125.369L70.4072 125.378L70.4081 125.376C62.7502 128.017 54.2014 128.281 45.9038 125.585C25.614 118.992 14.5101 97.1998 21.1025 76.9099Z" fill="#FAE0BE"/>
<path d="M112.645 12.392C133.979 12.392 151.275 29.6867 151.275 51.0209C151.275 59.7456 148.381 67.7941 143.502 74.2611H143.682L142.567 75.4515C141.468 76.7955 140.28 78.0632 139.013 79.2474L112.644 107.415L87.2241 80.1049C85.2234 78.3546 83.4045 76.402 81.8003 74.2777L81.7847 74.2611H81.7876C76.9095 67.7941 74.0161 59.7455 74.0161 51.0209C74.0163 29.6868 91.311 12.3922 112.645 12.392Z" fill="#FAE0BE"/>
<path d="M202.289 79.5162C208.882 99.8063 197.778 121.6 177.488 128.192C169.19 130.889 160.641 130.623 152.983 127.982L153.039 128.153L151.562 127.46C149.944 126.831 148.372 126.093 146.854 125.253L111.916 108.879L130.035 76.264C131.081 73.8203 132.376 71.487 133.901 69.3049L133.912 69.2849L133.913 69.2877C138.556 62.6499 145.316 57.411 153.614 54.7149C173.904 48.1225 195.696 59.2264 202.289 79.5162Z" fill="#FAE0BE"/>
<path d="M108.458 82.6525C108.717 79.5327 113.283 79.5327 113.542 82.6525C113.754 85.2069 117.178 85.8881 118.352 83.6092C119.785 80.8259 124.003 82.5734 123.049 85.5547C122.267 87.9958 125.17 89.9357 127.126 88.2792C129.515 86.2561 132.744 89.4851 130.721 91.874C129.064 93.8301 131.004 96.7333 133.445 95.9515C136.427 94.9966 138.174 99.2155 135.391 100.648C133.112 101.822 133.793 105.246 136.347 105.458C139.467 105.717 139.467 110.283 136.347 110.542C133.793 110.754 133.112 114.178 135.391 115.352C138.174 116.785 136.427 121.003 133.445 120.049C131.004 119.267 129.064 122.17 130.721 124.126C132.744 126.515 129.515 129.744 127.126 127.721C125.17 126.064 122.267 128.004 123.048 130.445C124.003 133.427 119.785 135.174 118.352 132.391C117.178 130.112 113.754 130.793 113.542 133.347C113.283 136.467 108.717 136.467 108.458 133.347C108.246 130.793 104.822 130.112 103.648 132.391C102.215 135.174 97.9966 133.427 98.9515 130.445C99.7333 128.004 96.8301 126.064 94.874 127.721C92.4851 129.744 89.2561 126.515 91.2792 124.126C92.9357 122.17 90.9958 119.267 88.5547 120.049C85.5734 121.003 83.8259 116.785 86.6092 115.352C88.8881 114.178 88.2069 110.754 85.6525 110.542C82.5327 110.283 82.5327 105.717 85.6525 105.458C88.2069 105.246 88.8881 101.822 86.6092 100.648C83.8259 99.2155 85.5734 94.9966 88.5547 95.9515C90.9958 96.7333 92.9357 93.8301 91.2792 91.874C89.2561 89.4851 92.4851 86.2561 94.874 88.2792C96.8301 89.9357 99.7333 87.9958 98.9515 85.5547C97.9966 82.5734 102.215 80.8259 103.648 83.6092C104.822 85.8881 108.246 85.2069 108.458 82.6525Z" fill="#F4B442"/>
<path d="M140.699 78.3015L111.001 108" stroke="#DC8433" stroke-width="2"/>
<circle cx="140.699" cy="78.3014" r="6" transform="rotate(45 140.699 78.3014)" fill="#F4B442"/>
<path d="M149.803 91.9272L111 108" stroke="#DC8433" stroke-width="2"/>
<circle cx="149.804" cy="91.9273" r="6" transform="rotate(67.5 149.804 91.9273)" fill="#F4B442"/>
<path d="M153 108L111 108" stroke="#DC8433" stroke-width="2"/>
<circle cx="153" cy="108" r="6" transform="rotate(90 153 108)" fill="#F4B442"/>
<path d="M149.803 124.073L111 108" stroke="#DC8433" stroke-width="2"/>
<circle cx="149.803" cy="124.073" r="6" transform="rotate(112.5 149.803 124.073)" fill="#F4B442"/>
<path d="M140.699 137.698L111.001 108" stroke="#DC8433" stroke-width="2"/>
<circle cx="140.698" cy="137.698" r="6" transform="rotate(135 140.698 137.698)" fill="#F4B442"/>
<path d="M127.072 146.803L111 108" stroke="#DC8433" stroke-width="2"/>
<circle cx="127.073" cy="146.803" r="6" transform="rotate(157.5 127.073 146.803)" fill="#F4B442"/>
<path d="M111 150L111 108" stroke="#DC8433" stroke-width="2"/>
<circle cx="111" cy="150" r="6" transform="rotate(180 111 150)" fill="#F4B442"/>
<path d="M94.9277 146.803L111 108" stroke="#DC8433" stroke-width="2"/>
<circle cx="94.9286" cy="146.803" r="6" transform="rotate(-157.5 94.9286 146.803)" fill="#F4B442"/>
<path d="M81.3027 137.698L111.001 108" stroke="#DC8433" stroke-width="2"/>
<circle cx="81.3027" cy="137.699" r="6" transform="rotate(-135 81.3027 137.699)" fill="#F4B442"/>
<path d="M72.1992 124.073L111.002 108" stroke="#DC8433" stroke-width="2"/>
<circle cx="72.1979" cy="124.073" r="6" transform="rotate(-112.5 72.1979 124.073)" fill="#F4B442"/>
<path d="M69 108L111 108" stroke="#DC8433" stroke-width="2"/>
<circle cx="69" cy="108" r="6" transform="rotate(-90 69 108)" fill="#F4B442"/>
<path d="M72.1992 91.9272L111.002 108" stroke="#DC8433" stroke-width="2"/>
<circle cx="72.1988" cy="91.9273" r="6" transform="rotate(-67.5 72.1988 91.9273)" fill="#F4B442"/>
<path d="M81.3027 78.3015L111.001 108" stroke="#DC8433" stroke-width="2"/>
<circle cx="81.3036" cy="78.3015" r="6" transform="rotate(-45 81.3036 78.3015)" fill="#F4B442"/>
<path d="M94.9297 69.1971L111.002 108" stroke="#DC8433" stroke-width="2"/>
<circle cx="94.9297" cy="69.1971" r="6" transform="rotate(-22.5 94.9297 69.1971)" fill="#F4B442"/>
<path d="M111.002 66V108" stroke="#DC8433" stroke-width="2"/>
<circle cx="111.002" cy="66" r="6" fill="#F4B442"/>
<path d="M127.072 69.197L111 108" stroke="#DC8433" stroke-width="2"/>
<circle cx="127.071" cy="69.197" r="6" transform="rotate(22.5 127.071 69.197)" fill="#F4B442"/>
<circle cx="46.1744" cy="46.1744" r="46.1744" transform="matrix(-0.866025 -0.5 -0.5 0.866025 245.322 352.58)" fill="#AFCFB1"/>
<path d="M148.54 427.86L200.485 412.089L136.41 375.095L148.54 427.86Z" fill="#AFCFB1"/>
<circle cx="46.1744" cy="46.1744" r="46.1744" transform="matrix(-0.866025 -0.5 -0.5 0.866025 293.069 269.878)" fill="#AFCFB1"/>
<path d="M196.287 345.157L248.232 329.386L184.157 292.392L196.287 345.157Z" fill="#AFCFB1"/>
<circle cx="46.1744" cy="46.1744" r="46.1744" transform="matrix(-0.866025 -0.5 -0.5 0.866025 340.818 187.175)" fill="#AFCFB1"/>
<path d="M244.037 262.454L295.982 246.683L231.907 209.689L244.037 262.454Z" fill="#AFCFB1"/>
<path d="M283.799 193.021L107.819 498" stroke="#638A4E" stroke-width="2"/>
<path d="M107.818 168L107.818 721.5" stroke="#638A4E" stroke-width="2"/>
</svg>
