<svg width="240" height="206" viewBox="0 0 240 206" fill="none" xmlns="http://www.w3.org/2000/svg">
<path d="M120.231 139.591C131.02 124.74 151.806 121.448 166.657 132.238C181.508 143.027 184.8 163.813 174.01 178.664C163.22 193.515 143.587 188.345 136.427 173.846C120.258 171.396 109.441 154.442 120.231 139.591Z" fill="#9461BD"/>
<path d="M183.894 108.109C186.13 109.734 180.478 158.647 180.478 158.647L137.392 127.342C137.392 127.342 181.658 106.485 183.894 108.109Z" fill="#9461BD"/>
<path d="M173.104 171.639C162.315 156.788 165.607 136.002 180.458 125.212C195.308 114.423 216.094 117.715 226.884 132.565C237.674 147.416 226.69 164.492 210.688 166.82C203.362 181.441 183.894 186.489 173.104 171.639Z" fill="#9461BD"/>
<path d="M162.837 101.363C165.073 99.7386 209.845 120.228 209.845 120.228L166.758 151.533C166.758 151.533 160.601 102.987 162.837 101.363Z" fill="#9461BD"/>
<path d="M219.923 131.257C202.465 136.93 183.714 127.375 178.041 109.917C172.369 92.4591 181.923 73.708 199.381 68.0355C216.839 62.3631 229.685 78.0853 226.954 94.0244C238.596 105.51 237.381 125.585 219.923 131.257Z" fill="#9461BD"/>
<path d="M149.914 119.306C149.06 116.677 182.382 80.4277 182.382 80.4277L198.84 131.079C198.84 131.079 150.768 121.934 149.914 119.306Z" fill="#9461BD"/>
<path d="M195.984 74.2523C195.984 92.6089 181.103 107.49 162.746 107.49C144.39 107.49 129.509 92.6089 129.509 74.2523C129.509 55.8957 148.431 48.5374 162.746 56.0595C177.267 48.5371 195.984 55.8957 195.984 74.2523Z" fill="#9461BD"/>
<path d="M162.983 137.141C160.22 137.141 136.041 94.2483 136.041 94.2483L189.3 94.2483C189.3 94.2483 165.747 137.141 162.983 137.141Z" fill="#9461BD"/>
<path d="M134.37 79.4026C151.829 85.0751 161.383 103.826 155.71 121.284C150.038 138.742 131.287 148.297 113.829 142.624C96.3704 136.952 95.2195 116.682 106.797 105.391C104.13 89.2571 116.912 73.7301 134.37 79.4026Z" fill="#9461BD"/>
<path d="M183.984 130.222C183.13 132.85 134.865 142.59 134.865 142.59L151.322 91.9384C151.322 91.9384 184.838 127.593 183.984 130.222Z" fill="#9461BD"/>
<path d="M172.084 100.285C171.609 96.6208 166.304 96.6208 165.829 100.285C165.487 102.922 162.236 103.978 160.41 102.046C157.871 99.3608 153.58 102.479 155.349 105.722C156.622 108.057 154.613 110.822 152 110.332C148.368 109.652 146.729 114.697 150.067 116.281C152.469 117.421 152.469 120.839 150.067 121.98C146.729 123.564 148.368 128.609 152 127.928C154.613 127.439 156.622 130.204 155.349 132.538C153.58 135.782 157.871 138.9 160.41 136.215C162.236 134.283 165.487 135.339 165.829 137.976C166.304 141.64 171.609 141.64 172.084 137.976C172.426 135.339 175.677 134.283 177.503 136.215C180.042 138.9 184.333 135.782 182.564 132.538C181.291 130.204 183.3 127.439 185.913 127.928C189.545 128.609 191.184 123.564 187.846 121.98C185.444 120.839 185.444 117.421 187.846 116.281C191.184 114.697 189.545 109.652 185.913 110.332C183.3 110.822 181.291 108.057 182.564 105.722C184.333 102.479 180.042 99.3608 177.503 102.046C175.677 103.978 172.426 102.922 172.084 100.285Z" fill="#EED2F8" stroke="#824E8A" stroke-width="2"/>
<path d="M82.2173 149.043C82.2173 179.971 107.289 205.043 138.217 205.043L148.304 205.043L148.304 194.957C148.304 164.029 123.232 138.956 92.3042 138.956L82.2173 138.956L82.2173 149.043Z" fill="#AFCFB1"/>
<path d="M83.3979 140.137C104.64 152.026 147.125 180.473 147.125 203.863" stroke="#638A4E" stroke-width="2" stroke-linecap="round"/>
<path d="M140.043 117.891L60.3288 117.891C35.1027 117.891 11.8946 105.281 11.8946 76.5303C11.8946 40.6169 11.8946 59.5106 11.8946 50.9358C11.8946 20.6717 2.3087 1 -38.0531 0.999999C-88.5054 0.999997 -200.005 0.999992 -311 0.999987" stroke="#638A4E" stroke-width="2"/>
<path d="M82.6304 139.783C75.6086 138.957 61.5652 133.587 61.5652 118.717" stroke="#638A4E" stroke-width="2" stroke-linecap="round"/>
</svg>
