<svg width="1335" height="909" viewBox="0 0 1335 909" fill="none" xmlns="http://www.w3.org/2000/svg">
<ellipse cx="766.776" cy="110" rx="7.5" ry="8" fill="#FFFFFE"/>
<ellipse cx="306.776" cy="268" rx="7.5" ry="8" fill="#FFFFFE"/>
<ellipse cx="1086.78" cy="8" rx="7.5" ry="8" fill="#FFFFFE"/>
<ellipse cx="1326.78" cy="58" rx="7.5" ry="8" fill="#FFFFFE"/>
<circle cx="260.776" cy="220.5" r="14.5" fill="#FFFFFE"/>
<circle cx="248.776" cy="235.5" r="14.5" fill="#FFFFFE"/>
<circle cx="276.776" cy="232.5" r="14.5" fill="#FFFFFE"/>
<circle cx="263.776" cy="247.5" r="14.5" fill="#FFFFFE"/>
<circle cx="1230.78" cy="710.5" r="14.5" fill="#FFFFFE"/>
<circle cx="1218.78" cy="725.5" r="14.5" fill="#FFFFFE"/>
<circle cx="1246.78" cy="722.5" r="14.5" fill="#FFFFFE"/>
<circle cx="1233.78" cy="737.5" r="14.5" fill="#FFFFFE"/>
<circle cx="862.776" cy="240.5" r="14.5" fill="#FFFFFE"/>
<circle cx="850.776" cy="255.5" r="14.5" fill="#FFFFFE"/>
<circle cx="878.776" cy="252.5" r="14.5" fill="#FFFFFE"/>
<circle cx="865.776" cy="267.5" r="14.5" fill="#FFFFFE"/>
<circle cx="1276.34" cy="60.4424" r="14.5" transform="rotate(15 1276.34 60.4424)" fill="#FFFFFE"/>
<circle cx="1260.86" cy="71.8254" r="14.5" transform="rotate(15 1260.86 71.8254)" fill="#FFFFFE"/>
<circle cx="1288.69" cy="76.1746" r="14.5" transform="rotate(15 1288.69 76.1746)" fill="#FFFFFE"/>
<circle cx="1272.25" cy="87.2988" r="14.5" transform="rotate(15 1272.25 87.2988)" fill="#FFFFFE"/>
<ellipse cx="86.7761" cy="858" rx="7.5" ry="8" fill="#FFFFFE"/>
<circle cx="36.338" cy="860.442" r="14.5" transform="rotate(15 36.338 860.442)" fill="#FFFFFE"/>
<circle cx="20.8646" cy="871.825" r="14.5" transform="rotate(15 20.8646 871.825)" fill="#FFFFFE"/>
<circle cx="48.687" cy="876.175" r="14.5" transform="rotate(15 48.687 876.175)" fill="#FFFFFE"/>
<circle cx="32.2477" cy="887.299" r="14.5" transform="rotate(15 32.2477 887.299)" fill="#FFFFFE"/>
</svg>
