<svg width="363" height="274" viewBox="0 0 363 274" fill="none" xmlns="http://www.w3.org/2000/svg">
<ellipse cx="254.447" cy="25.4134" rx="16.5515" ry="24.4332" transform="rotate(3.55841 254.447 25.4134)" fill="#C88A65"/>
<path d="M236.585 28.7209C155.359 16.795 108.889 83.6494 89.1071 135.589C82.3053 153.447 73.1818 170.556 59.8728 184.27C8.70646 236.993 5.41792 253.631 5.20456 298.514C5.13264 313.643 7.88331 329.121 16.746 341.382C49.2474 386.348 99.3855 376.867 201.822 376.205C216.707 376.108 232.141 373.772 243.68 364.367C265.75 346.377 270.81 321.863 269.243 297.435C266.418 253.372 282.137 211.627 311.356 178.524C324.71 163.396 332.048 150.754 333.477 146.882C336.326 139.162 357.88 46.5297 236.585 28.7209Z" fill="url(#paint0_linear_76_2229)"/>
<g filter="url(#filter0_f_76_2229)">
<path d="M314.591 164.781C298.66 188.797 262.705 186.561 249.872 160.757C237.039 134.952 256.953 104.931 285.717 106.72C314.481 108.509 330.522 140.765 314.591 164.781Z" fill="#C88A65"/>
</g>
<rect x="176.487" y="85.3936" width="30.7385" height="10.2462" rx="5.12309" transform="rotate(-11.4416 176.487 85.3936)" fill="#713824"/>
<rect x="306.384" y="85.5" width="30.7386" height="10.2462" rx="5.12309" transform="rotate(33.5584 306.384 85.5)" fill="#713824"/>
<path fill-rule="evenodd" clip-rule="evenodd" d="M126.476 8.89378C134.945 3.55445 148.115 9.22582 155.892 21.5613C158.314 25.4036 159.927 29.4393 160.745 33.3364C164.105 41.2095 163.67 49.1698 158.854 53.9003C151.712 60.9161 137.638 58.1704 127.42 47.7675C118.014 38.1921 115.152 25.4668 120.327 18.0317C121.265 14.1172 123.322 10.8822 126.476 8.89378Z" fill="#C88A65"/>
<path d="M263.596 119.577C278.027 116.362 286.509 115.985 302.387 118.041" stroke="#855239" stroke-width="10" stroke-linecap="round"/>
<path d="M284.172 118.865C285.103 139.833 286.789 152.984 276.815 173.685" stroke="#855239" stroke-width="10" stroke-linecap="round"/>
<g filter="url(#filter1_f_76_2229)">
<path d="M222.73 46.5889C226.286 51.424 229.78 56.2138 233.491 60.9363" stroke="#DD9263" stroke-width="0.796724" stroke-linecap="round"/>
</g>
<g filter="url(#filter2_f_76_2229)">
<path d="M238.274 43.001C240.797 48.0467 246.432 52.4601 251.426 54.9572" stroke="#DD9263" stroke-width="0.796724" stroke-linecap="round"/>
</g>
<g filter="url(#filter3_f_76_2229)">
<path d="M252.622 41.8066C256.65 42.8729 260.556 44.3879 264.578 45.3935" stroke="#DD9263" stroke-width="0.796724" stroke-linecap="round"/>
</g>
<g filter="url(#filter4_f_76_2229)">
<path d="M200.014 182.889L202.405 175.715" stroke="#DD9263" stroke-width="0.796724" stroke-linecap="round"/>
</g>
<g filter="url(#filter5_f_76_2229)">
<path d="M219.144 168.542C218.597 177.29 214.314 183.032 211.97 190.063" stroke="#DD9263" stroke-width="0.796724" stroke-linecap="round"/>
</g>
<g filter="url(#filter6_f_76_2229)">
<path d="M232.295 168.542C232.295 175.705 234.095 188.566 226.317 192.454" stroke="#DD9263" stroke-width="0.796724" stroke-linecap="round"/>
</g>
<g filter="url(#filter7_f_76_2229)">
<path d="M72.0815 192.455C68.9482 196.334 66.3896 200.246 63.7122 204.411" stroke="#DD9263" stroke-width="0.796724" stroke-linecap="round"/>
</g>
<g filter="url(#filter8_f_76_2229)">
<path d="M78.0606 200.823C75.9894 201.913 74.065 203.171 72.0825 204.41" stroke="#DD9263" stroke-width="0.796724" stroke-linecap="round"/>
</g>
<g filter="url(#filter9_f_76_2229)">
<path d="M217.948 255.822C221.276 260.143 224.418 264.503 227.513 268.974" stroke="#DD9263" stroke-width="0.796724" stroke-linecap="round"/>
</g>
<g filter="url(#filter10_f_76_2229)">
<path d="M229.905 257.017C231.865 260.231 233.95 263.359 235.883 266.582" stroke="#DD9263" stroke-width="0.796724" stroke-linecap="round"/>
</g>
<g filter="url(#filter11_f_76_2229)">
<path d="M133.06 135.063C132.209 139.529 131.864 143.681 131.864 148.215" stroke="#AB6236" stroke-width="3" stroke-linecap="round"/>
</g>
<g filter="url(#filter12_f_76_2229)">
<path d="M143.82 141.042C143.82 145.737 145.016 149.622 145.016 154.194" stroke="#AB6236" stroke-width="3" stroke-linecap="round"/>
</g>
<g filter="url(#filter13_f_76_2229)">
<path d="M158.168 151.804C159.98 157.129 161.949 162.221 164.146 167.347" stroke="#AB6236" stroke-width="3" stroke-linecap="round"/>
</g>
<g filter="url(#filter14_f_76_2229)">
<path d="M111.538 268.973C111.538 272.836 112.899 283.154 110.342 285.711" stroke="#AB6236" stroke-width="3" stroke-linecap="round"/>
</g>
<g filter="url(#filter15_f_76_2229)">
<path d="M121.104 276.147C122.38 280.695 123.495 284.637 123.495 289.299" stroke="#AB6236" stroke-width="3" stroke-linecap="round"/>
</g>
<g filter="url(#filter16_f_76_2229)">
<path d="M136.646 268.973C136.646 275.196 137.458 280.373 134.255 285.711" stroke="#AB6236" stroke-width="3" stroke-linecap="round"/>
</g>
<g filter="url(#filter17_f_76_2229)">
<path d="M244.252 255.822C245.705 257.82 246.768 259.659 247.839 261.8" stroke="#AB6236" stroke-width="3" stroke-linecap="round"/>
</g>
<path d="M71.0083 319.99C81.7856 296.965 92.2752 250.132 48.0146 246.997" stroke="#855239" stroke-width="10" stroke-linecap="round"/>
<circle cx="159.5" cy="39.5" r="14.5" fill="#F2BAC9"/>
<circle cx="147.5" cy="54.5" r="14.5" fill="#F2BAC9"/>
<circle cx="175.5" cy="51.5" r="14.5" fill="#F2BAC9"/>
<circle cx="162.5" cy="66.5" r="14.5" fill="#F2BAC9"/>
<circle cx="161" cy="53" r="6" fill="#F2E2BA"/>
<defs>
<filter id="filter0_f_76_2229" x="243.797" y="104.543" width="79.1863" height="79.0835" filterUnits="userSpaceOnUse" color-interpolation-filters="sRGB">
<feFlood flood-opacity="0" result="BackgroundImageFix"/>
<feBlend mode="normal" in="SourceGraphic" in2="BackgroundImageFix" result="shape"/>
<feGaussianBlur stdDeviation="1.05042" result="effect1_foregroundBlur_76_2229"/>
</filter>
<filter id="filter1_f_76_2229" x="221.27" y="45.1281" width="13.682" height="17.2691" filterUnits="userSpaceOnUse" color-interpolation-filters="sRGB">
<feFlood flood-opacity="0" result="BackgroundImageFix"/>
<feBlend mode="normal" in="SourceGraphic" in2="BackgroundImageFix" result="shape"/>
<feGaussianBlur stdDeviation="0.531149" result="effect1_foregroundBlur_76_2229"/>
</filter>
<filter id="filter2_f_76_2229" x="236.814" y="41.5402" width="16.0733" height="14.8775" filterUnits="userSpaceOnUse" color-interpolation-filters="sRGB">
<feFlood flood-opacity="0" result="BackgroundImageFix"/>
<feBlend mode="normal" in="SourceGraphic" in2="BackgroundImageFix" result="shape"/>
<feGaussianBlur stdDeviation="0.531149" result="effect1_foregroundBlur_76_2229"/>
</filter>
<filter id="filter3_f_76_2229" x="251.161" y="40.3459" width="14.8778" height="6.50839" filterUnits="userSpaceOnUse" color-interpolation-filters="sRGB">
<feFlood flood-opacity="0" result="BackgroundImageFix"/>
<feBlend mode="normal" in="SourceGraphic" in2="BackgroundImageFix" result="shape"/>
<feGaussianBlur stdDeviation="0.531149" result="effect1_foregroundBlur_76_2229"/>
</filter>
<filter id="filter4_f_76_2229" x="198.553" y="174.254" width="5.31283" height="10.0953" filterUnits="userSpaceOnUse" color-interpolation-filters="sRGB">
<feFlood flood-opacity="0" result="BackgroundImageFix"/>
<feBlend mode="normal" in="SourceGraphic" in2="BackgroundImageFix" result="shape"/>
<feGaussianBlur stdDeviation="0.531149" result="effect1_foregroundBlur_76_2229"/>
</filter>
<filter id="filter5_f_76_2229" x="210.51" y="167.081" width="10.0951" height="24.443" filterUnits="userSpaceOnUse" color-interpolation-filters="sRGB">
<feFlood flood-opacity="0" result="BackgroundImageFix"/>
<feBlend mode="normal" in="SourceGraphic" in2="BackgroundImageFix" result="shape"/>
<feGaussianBlur stdDeviation="0.531149" result="effect1_foregroundBlur_76_2229"/>
</filter>
<filter id="filter6_f_76_2229" x="224.856" y="167.081" width="9.07919" height="26.8336" filterUnits="userSpaceOnUse" color-interpolation-filters="sRGB">
<feFlood flood-opacity="0" result="BackgroundImageFix"/>
<feBlend mode="normal" in="SourceGraphic" in2="BackgroundImageFix" result="shape"/>
<feGaussianBlur stdDeviation="0.531149" result="effect1_foregroundBlur_76_2229"/>
</filter>
<filter id="filter7_f_76_2229" x="62.2514" y="190.994" width="11.2909" height="14.8775" filterUnits="userSpaceOnUse" color-interpolation-filters="sRGB">
<feFlood flood-opacity="0" result="BackgroundImageFix"/>
<feBlend mode="normal" in="SourceGraphic" in2="BackgroundImageFix" result="shape"/>
<feGaussianBlur stdDeviation="0.531149" result="effect1_foregroundBlur_76_2229"/>
</filter>
<filter id="filter8_f_76_2229" x="70.6218" y="199.363" width="8.8995" height="6.50839" filterUnits="userSpaceOnUse" color-interpolation-filters="sRGB">
<feFlood flood-opacity="0" result="BackgroundImageFix"/>
<feBlend mode="normal" in="SourceGraphic" in2="BackgroundImageFix" result="shape"/>
<feGaussianBlur stdDeviation="0.531149" result="effect1_foregroundBlur_76_2229"/>
</filter>
<filter id="filter9_f_76_2229" x="216.488" y="254.362" width="12.4864" height="16.0728" filterUnits="userSpaceOnUse" color-interpolation-filters="sRGB">
<feFlood flood-opacity="0" result="BackgroundImageFix"/>
<feBlend mode="normal" in="SourceGraphic" in2="BackgroundImageFix" result="shape"/>
<feGaussianBlur stdDeviation="0.531149" result="effect1_foregroundBlur_76_2229"/>
</filter>
<filter id="filter10_f_76_2229" x="228.445" y="255.556" width="8.8995" height="12.4859" filterUnits="userSpaceOnUse" color-interpolation-filters="sRGB">
<feFlood flood-opacity="0" result="BackgroundImageFix"/>
<feBlend mode="normal" in="SourceGraphic" in2="BackgroundImageFix" result="shape"/>
<feGaussianBlur stdDeviation="0.531149" result="effect1_foregroundBlur_76_2229"/>
</filter>
<filter id="filter11_f_76_2229" x="129.302" y="132.501" width="6.3204" height="18.276" filterUnits="userSpaceOnUse" color-interpolation-filters="sRGB">
<feFlood flood-opacity="0" result="BackgroundImageFix"/>
<feBlend mode="normal" in="SourceGraphic" in2="BackgroundImageFix" result="shape"/>
<feGaussianBlur stdDeviation="0.531149" result="effect1_foregroundBlur_76_2229"/>
</filter>
<filter id="filter12_f_76_2229" x="141.258" y="138.48" width="6.32015" height="18.276" filterUnits="userSpaceOnUse" color-interpolation-filters="sRGB">
<feFlood flood-opacity="0" result="BackgroundImageFix"/>
<feBlend mode="normal" in="SourceGraphic" in2="BackgroundImageFix" result="shape"/>
<feGaussianBlur stdDeviation="0.531149" result="effect1_foregroundBlur_76_2229"/>
</filter>
<filter id="filter13_f_76_2229" x="155.605" y="149.241" width="11.1036" height="20.6676" filterUnits="userSpaceOnUse" color-interpolation-filters="sRGB">
<feFlood flood-opacity="0" result="BackgroundImageFix"/>
<feBlend mode="normal" in="SourceGraphic" in2="BackgroundImageFix" result="shape"/>
<feGaussianBlur stdDeviation="0.531149" result="effect1_foregroundBlur_76_2229"/>
</filter>
<filter id="filter14_f_76_2229" x="107.78" y="266.41" width="6.68221" height="21.8629" filterUnits="userSpaceOnUse" color-interpolation-filters="sRGB">
<feFlood flood-opacity="0" result="BackgroundImageFix"/>
<feBlend mode="normal" in="SourceGraphic" in2="BackgroundImageFix" result="shape"/>
<feGaussianBlur stdDeviation="0.531149" result="effect1_foregroundBlur_76_2229"/>
</filter>
<filter id="filter15_f_76_2229" x="118.541" y="273.585" width="7.51644" height="18.276" filterUnits="userSpaceOnUse" color-interpolation-filters="sRGB">
<feFlood flood-opacity="0" result="BackgroundImageFix"/>
<feBlend mode="normal" in="SourceGraphic" in2="BackgroundImageFix" result="shape"/>
<feGaussianBlur stdDeviation="0.531149" result="effect1_foregroundBlur_76_2229"/>
</filter>
<filter id="filter16_f_76_2229" x="131.692" y="266.41" width="7.61337" height="21.8639" filterUnits="userSpaceOnUse" color-interpolation-filters="sRGB">
<feFlood flood-opacity="0" result="BackgroundImageFix"/>
<feBlend mode="normal" in="SourceGraphic" in2="BackgroundImageFix" result="shape"/>
<feGaussianBlur stdDeviation="0.531149" result="effect1_foregroundBlur_76_2229"/>
</filter>
<filter id="filter17_f_76_2229" x="241.689" y="253.26" width="8.71176" height="11.1031" filterUnits="userSpaceOnUse" color-interpolation-filters="sRGB">
<feFlood flood-opacity="0" result="BackgroundImageFix"/>
<feBlend mode="normal" in="SourceGraphic" in2="BackgroundImageFix" result="shape"/>
<feGaussianBlur stdDeviation="0.531149" result="effect1_foregroundBlur_76_2229"/>
</filter>
<linearGradient id="paint0_linear_76_2229" x1="260.504" y1="55.007" x2="69.3941" y2="347.153" gradientUnits="userSpaceOnUse">
<stop stop-color="#D1A278"/>
<stop offset="1" stop-color="#C98B66"/>
</linearGradient>
</defs>
</svg>

