<svg width="155" height="190" viewBox="0 0 155 190" fill="none" xmlns="http://www.w3.org/2000/svg">
<mask id="mask0_155_1570" style="mask-type:alpha" maskUnits="userSpaceOnUse" x="0" y="0" width="155" height="190">
<path d="M0 40.1201L75.0284 3.19773e-05L154.86 149.294C154.86 149.294 114.88 157.392 111.575 159.948C108.269 162.504 109.411 165.006 106.851 167.076C104.291 169.146 93.261 159.871 87.7749 166.1C82.2889 172.328 79.8321 189.414 79.8321 189.414L0 40.1201Z" fill="#D9D9D9"/>
</mask>
<g mask="url(#mask0_155_1570)">
<circle cx="70.4836" cy="86.3945" r="12.1991" transform="rotate(-22.9951 70.4836 86.3945)" fill="#74AA63"/>
<path d="M77.4409 102.789L64.3279 96.9796L82.3219 89.3434L77.4409 102.789Z" fill="#74AA63"/>
<circle cx="60.6277" cy="63.1694" r="12.1991" transform="rotate(-22.9951 60.6277 63.1694)" fill="#74AA63"/>
<path d="M67.585 79.5637L54.4719 73.7545L72.4659 66.1183L67.585 79.5637Z" fill="#74AA63"/>
<circle cx="50.7717" cy="39.9443" r="12.1991" transform="rotate(-22.9951 50.7717 39.9443)" fill="#74AA63"/>
<path d="M57.729 56.3386L44.6159 50.5294L62.6099 42.8932L57.729 56.3386Z" fill="#74AA63"/>
<path d="M49.5396 36.8504L85.8595 122.493" stroke="#638A4E" stroke-width="2"/>
<path d="M107.176 195.899C112.148 201.492 121.392 197.807 121.152 190.327L118.722 114.776C118.544 109.232 112.915 105.548 107.763 107.602L59.9771 126.654C54.825 128.708 53.2756 135.254 56.9602 139.399L107.176 195.899Z" fill="#FDA978"/>
</g>
</svg>
