<svg width="254" height="678" viewBox="0 0 254 678" fill="none" xmlns="http://www.w3.org/2000/svg">
<path d="M48.0194 102.033C17.5656 143.949 24.2493 174.478 51.385 167.95C53.3547 195.624 84.6623 192.698 115.116 150.782C131.036 128.87 141.276 106.144 144.777 87.5203L158.283 31.3535C159.677 25.5562 153.357 20.9739 148.28 24.1014L101.042 53.2034C83.8965 62.0028 64.5881 79.228 48.0194 102.033Z" fill="#D98FC2"/>
<path d="M87.129 150.782C117.583 192.698 148.683 195.775 150.86 167.95C177.788 174.629 184.68 143.949 154.226 102.033C138.306 80.121 119.857 63.3603 103.226 54.2756L53.9825 24.0735C48.8996 20.9565 42.5884 25.5517 43.9941 31.3462L57.0745 85.2648C60.1448 104.291 70.5604 127.977 87.129 150.782Z" fill="#D98FC2"/>
<path d="M145.577 128.652C194.853 112.641 207.39 84.0146 181.599 73.346C196.272 49.7993 169.224 33.7643 119.948 49.7748C94.1893 58.1444 72.5477 70.5116 58.7687 83.5205L14.8276 121.021C10.2924 124.892 12.7124 132.314 18.6577 132.768L73.9795 136.99C93.023 139.949 118.769 137.363 145.577 128.652Z" fill="#D98FC2"/>
<path d="M142.592 66.2259C142.592 14.4146 119.24 -6.35518 101.124 14.8763C83.2639 -6.35492 59.6554 14.4143 59.6553 66.2259C59.6553 93.3105 64.7296 117.715 72.8438 134.839L94.9307 188.218C97.2106 193.727 105.017 193.719 107.286 188.205L128.396 136.896C137.096 119.699 142.592 94.4142 142.592 66.2259Z" fill="#D98FC2"/>
<path d="M82.2979 49.7752C33.0223 33.7647 6.05309 49.5552 20.6472 73.3455C-5.06391 83.7706 7.39337 112.642 56.6691 128.652C82.4281 137.022 107.206 139.737 126 137.312L183.591 132.801C189.535 132.335 191.94 124.908 187.397 121.047L145.122 85.1139C131.455 71.5263 109.106 58.4858 82.2979 49.7752Z" fill="#D98FC2"/>
<path d="M107.708 62.7888C106.778 55.6238 96.4054 55.6238 95.476 62.7888V62.7888C94.8072 67.9447 88.4503 70.0102 84.8786 66.2321V66.2321C79.9153 60.9818 71.5235 67.0788 74.983 73.4217V73.4217C77.4725 77.986 73.5438 83.3935 68.4335 82.4363V82.4363C61.332 81.1061 58.1266 90.9713 64.6537 94.0693V94.0693C69.3506 96.2986 69.3506 102.983 64.6537 105.212V105.212C58.1266 108.31 61.332 118.175 68.4335 116.845V116.845C73.5438 115.888 77.4725 121.295 74.983 125.86V125.86C71.5235 132.202 79.9153 138.299 84.8786 133.049V133.049C88.4503 129.271 94.8072 131.337 95.476 136.492V136.492C96.4054 143.657 106.778 143.657 107.708 136.492V136.492C108.376 131.337 114.733 129.271 118.305 133.049V133.049C123.268 138.299 131.66 132.202 128.201 125.86V125.86C125.711 121.295 129.64 115.888 134.75 116.845V116.845C141.852 118.175 145.057 108.31 138.53 105.212V105.212C133.833 102.983 133.833 96.2986 138.53 94.0693V94.0693C145.057 90.9713 141.852 81.1061 134.75 82.4363V82.4363C129.64 83.3935 125.711 77.986 128.201 73.4217V73.4217C131.66 67.0788 123.268 60.9818 118.305 66.2321V66.2321C114.733 70.0102 108.376 67.9447 107.708 62.7888V62.7888Z" fill="#FAC25F"/>
<path d="M73.7046 83.6875L129.293 115.781" stroke="#E69449" stroke-width="2" stroke-linecap="round"/>
<path d="M69.4043 99.7344L133.592 99.7344" stroke="#E69449" stroke-width="2" stroke-linecap="round"/>
<path d="M73.7046 115.781L129.293 83.6875" stroke="#E69449" stroke-width="2" stroke-linecap="round"/>
<path d="M85.4512 127.528L117.545 71.9403" stroke="#E69449" stroke-width="2" stroke-linecap="round"/>
<path d="M101.498 131.828L101.498 67.6406" stroke="#E69449" stroke-width="2" stroke-linecap="round"/>
<path d="M117.545 127.528L85.4512 71.9403" stroke="#E69449" stroke-width="2" stroke-linecap="round"/>
<path d="M129.292 115.781L73.7035 83.6875" stroke="#E69449" stroke-width="2" stroke-linecap="round"/>
<path d="M133.592 99.7344H69.4043" stroke="#E69449" stroke-width="2" stroke-linecap="round"/>
<path d="M129.293 83.6875L73.705 115.781" stroke="#E69449" stroke-width="2" stroke-linecap="round"/>
<path d="M117.546 71.9404L85.4521 127.528" stroke="#E69449" stroke-width="2" stroke-linecap="round"/>
<path d="M116.246 218C116.246 187.072 141.318 162 172.246 162H228.246V218C228.246 248.928 203.174 274 172.246 274H116.246V218Z" fill="#74AA63"/>
<path d="M118.246 272C154.246 251.85 226.246 203.64 226.246 164" stroke="#638A4E" stroke-width="2" stroke-linecap="round"/>
<path d="M101.246 132V228.497C101.246 259.034 116.51 287.128 151.314 287.128C194.788 287.128 226.417 287.128 236.797 287.128C273.433 287.128 297.246 298.732 297.246 347.591C297.246 408.664 297.246 543.638 297.246 678" stroke="#638A4E" stroke-width="2"/>
<path d="M90.5991 203.497C75.1351 176.713 40.8861 167.536 14.1017 183L0.245294 191L8.24529 204.856C23.7093 231.641 57.9583 240.818 84.7427 225.354L98.5991 217.354L90.5991 203.497Z" fill="#74AA63"/>
<path d="M96.8427 216.883C70.3236 217.236 14.7428 213.539 2.00151 191.47" stroke="#638A4E" stroke-width="2" stroke-linecap="round"/>
</svg>
