<svg width="286" height="115" viewBox="0 0 286 115" fill="none" xmlns="http://www.w3.org/2000/svg">
<path d="M28.6705 20.0037C27.493 22.1232 25.0024 27.5718 21.9123 38.3531C20.1113 44.6369 20.2353 53.1379 20.0515 58.3279C19.8054 65.28 20.4601 68.6346 21.4074 71.8371C22.4624 75.4033 25.6768 80.5096 30.005 86.7432C33.9795 92.4675 38.2975 94.1008 40.0745 94.3988C47.7921 95.6928 57.9047 89.4765 64.7128 85.1607C69.2331 82.2953 75.1712 76.9592 79.2675 73.1734C85.5625 67.3555 89.5439 62.2511 95.4671 56.8578C98.9324 53.7025 103.745 50.1692 108.527 46.9935C113.308 43.8178 118.018 41.2273 122.623 39.304C131.373 35.6493 138.193 34.9901 143.641 35.4611C151.542 36.1441 159.352 39.4932 165.172 42.5208C167.722 43.8477 169.343 44.9596 175.373 49.6268C181.404 54.294 191.766 62.5366 199.635 67.8425C207.505 73.1484 212.568 75.2679 217.178 76.8308C221.788 78.3936 225.792 79.3356 231.917 79.762C238.042 80.1884 246.166 80.0707 252.177 79.539C258.188 79.0074 261.838 78.0654 265.956 77.0948" stroke="#F2BAC9" stroke-width="40" stroke-linecap="round"/>
<path d="M5.93652 44.72C5.93652 44.72 7.0514 47.7443 20.2844 48.1224C33.5174 48.5005 35.4272 46.2323 35.4272 46.2323" stroke="#D68EA1"/>
<path d="M5.84033 70.7471C5.84033 70.7471 7.6045 73.4447 20.5858 70.8481C33.567 68.2516 34.9201 65.6132 34.9201 65.6132" stroke="#D68EA1"/>
<path d="M18.8491 96.6077C18.8491 96.6077 27.4681 97.2736 33.8954 91.2242C40.3227 85.1748 41.8687 78.112 41.8687 78.112" stroke="#D68EA1"/>
<path d="M66.8901 101.729C66.8901 101.729 67.9896 94.1274 63.9297 85.9375C59.8699 77.7475 54.713 73.6172 54.713 73.6172" stroke="#D68EA1"/>
<path d="M86.5508 85.8489C86.5508 85.8489 87.6502 78.2478 83.5904 70.0578C79.5305 61.8679 74.3737 57.7376 74.3737 57.7376" stroke="#D68EA1"/>
<path d="M106.967 66.1885C106.967 66.1885 108.066 58.5874 104.006 50.3974C99.9465 42.2075 94.7897 38.0772 94.7897 38.0772" stroke="#D68EA1"/>
<path d="M137.038 50.6592C137.038 50.6592 138.175 43.1447 134.168 35.0758C130.16 27.0068 125.037 22.9539 125.037 22.9539" stroke="#D68EA1"/>
<path d="M154.946 54.3193C154.946 54.3193 161.315 50.1723 164.677 41.814C168.04 33.4557 167.661 26.9342 167.661 26.9342" stroke="#D68EA1"/>
<path d="M177.631 70.199C177.631 70.199 184 66.052 187.363 57.6937C190.725 49.3354 190.346 42.8138 190.346 42.8138" stroke="#D68EA1"/>
<path d="M201.073 86.0786C201.073 86.0786 207.442 81.9316 210.804 73.5733C214.167 65.215 213.788 58.6935 213.788 58.6935" stroke="#D68EA1"/>
<path d="M235.199 94.8311C235.199 94.8311 240.799 89.4597 242.727 80.391C244.655 71.3223 243.192 64.8035 243.192 64.8035" stroke="#D68EA1"/>
<ellipse cx="21.6502" cy="19.2195" rx="1.89043" ry="3.40277" transform="rotate(20.1529 21.6502 19.2195)" fill="#D68EA1"/>
<ellipse cx="28.7488" cy="21.8248" rx="1.89043" ry="3.40277" transform="rotate(20.1529 28.7488 21.8248)" fill="#D68EA1"/>
<path d="M18.7129 27.5212C18.7129 27.5212 18.3377 30.6027 20.525 31.396C22.7122 32.1893 24.3998 29.5839 24.3998 29.5839" stroke="#D68EA1"/>
</svg>
